<?xml version="1.0" encoding="UTF-8"?>
<svg id="Layer_1" xmlns="http://www.w3.org/2000/svg" version="1.1" viewBox="0 0 1383.2 500">
  <!-- Generator: Adobe Illustrator 29.0.0, SVG Export Plug-In . SVG Version: 2.1.0 Build 186)  -->
  <defs>
    <style>
      .st0 {
        fill: #231f20;
      }

      .st1 {
        fill: #fff;
      }
    </style>
  </defs>
  <g>
    <path class="st0" d="M477.6,217.2h-24.6l28.3-54.6h28.8l27.2,54.6h-29.4l-3.4-8.6h-22.9l-3.9,8.6ZM486.9,196.7h13l-5.8-15.4h-.2l-6.9,15.4Z"/>
    <path class="st0" d="M542.1,217.2v-7.2c.1,0,.1-40.2.1-40.2v-7.2c-.1,0,27.3,0,27.3,0v7.2c-.1,0-.1,34.1-.1,34.1h28.8v13.3h-56.1Z"/>
    <path class="st0" d="M605.7,217.2v-7.2c.1,0,.1-40.2.1-40.2v-7.2c-.1,0,27.3,0,27.3,0v7.2c-.1,0-.1,34.1-.1,34.1h28.8v13.3h-56.1Z"/>
    <path class="st0" d="M716.1,198.2v19c.1,0-27.3,0-27.3,0v-7.2c.1,0,.1-40.2.1-40.2v-7.2c-.1,0,39.9,0,39.9,0,16,0,32.2,3.6,32.2,17.6s-13.8,17.9-29,17.9h-16ZM716.1,185.6h9.1c5.5,0,9.4-1,9.4-5.3s-4-5.1-9.4-5.1h-9.1v10.4Z"/>
    <path class="st0" d="M813.3,217.2l-10.1-19.7h-6.6v19.7c.1,0-27.3,0-27.3,0v-7.2c.1,0,.1-40.2.1-40.2v-7.2c-.1,0,41.1,0,41.1,0,15.2,0,30.9,3.7,30.9,17.2s-4.9,12.1-12.2,14.9l14.2,22.4v.2h-30.1ZM796.6,184.9h9.2c5,0,8.8-1.1,8.8-4.8s-3.8-4.9-9.2-4.9h-8.8v9.7Z"/>
    <path class="st0" d="M847.9,189.9c0-15.7,14.8-28.7,41.2-28.7s41.1,13,41.1,28.7-14.9,28.8-41.1,28.8-41.2-13-41.2-28.8ZM899.5,189.9c0-12-3.4-16-10.4-16s-10.4,4-10.4,16,3.1,16.1,10.4,16.1,10.4-4,10.4-16.1Z"/>
    <path class="st1" d="M477.6,211.5h-24.6l28.3-54.6h28.8l27.2,54.6h-29.4l-3.4-8.6h-22.9l-3.9,8.6ZM486.9,191h13l-5.8-15.4h-.2l-6.9,15.4Z"/>
    <path class="st1" d="M542.1,211.5v-7.2c.1,0,.1-40.2.1-40.2v-7.2c-.1,0,27.3,0,27.3,0v7.2c-.1,0-.1,34.1-.1,34.1h28.8v13.3h-56.1Z"/>
    <path class="st1" d="M605.7,211.5v-7.2c.1,0,.1-40.2.1-40.2v-7.2c-.1,0,27.3,0,27.3,0v7.2c-.1,0-.1,34.1-.1,34.1h28.8v13.3h-56.1Z"/>
    <path class="st1" d="M716.1,192.5v19c.1,0-27.3,0-27.3,0v-7.2c.1,0,.1-40.2.1-40.2v-7.2c-.1,0,39.9,0,39.9,0,16,0,32.2,3.6,32.2,17.6s-13.8,17.9-29,17.9h-16ZM716.1,179.9h9.1c5.5,0,9.4-1,9.4-5.3s-4-5.1-9.4-5.1h-9.1v10.4Z"/>
    <path class="st1" d="M813.3,211.5l-10.1-19.7h-6.6v19.7c.1,0-27.3,0-27.3,0v-7.2c.1,0,.1-40.2.1-40.2v-7.2c-.1,0,41.1,0,41.1,0,15.2,0,30.9,3.7,30.9,17.2s-4.9,12.1-12.2,14.9l14.2,22.4v.2h-30.1ZM796.6,179.2h9.2c5,0,8.8-1.1,8.8-4.8s-3.8-4.9-9.2-4.9h-8.8v9.7Z"/>
    <path class="st1" d="M847.9,184.2c0-15.7,14.8-28.7,41.2-28.7s41.1,13,41.1,28.7-14.9,28.8-41.1,28.8-41.2-13-41.2-28.8ZM899.5,184.2c0-12-3.4-16-10.4-16s-10.4,4-10.4,16,3.1,16.1,10.4,16.1,10.4-4,10.4-16.1Z"/>
  </g>
  <g>
    <path class="st0" d="M14.2,277.7h27.9l9.3,26h.2l11-26h19.8l11.5,26h.2l8.4-26h24.8l-21,54.6h-23.7l-12-26.8h-.2l-11.5,26.8h-22.8l-21.8-54.6Z"/>
    <path class="st0" d="M187.1,311.2h-26.7v7.7h32.7v13.3h-60v-7.2c.1,0,.1-40.2.1-40.2v-7.2c-.1,0,59,0,59,0v13.3h-31.8v7.3h26.7v13Z"/>
    <path class="st0" d="M202.1,332.2v-7.2c.1,0,.1-40.2.1-40.2v-7.2c-.1,0,27.3,0,27.3,0v7.2c-.1,0-.1,34.1-.1,34.1h28.8v13.3h-56.1Z"/>
    <path class="st0" d="M265.6,277.7h35.6c25.6,0,41.2,11,41.2,27.9s-17,26.7-41.2,26.7h-35.6v-7.2c.1,0,.1-40.2.1-40.2v-7.2ZM292.9,319.7h4.8c9.2,0,15.4-3.8,15.4-14.7s-6.2-14.8-15.4-14.8h-4.8v29.5Z"/>
    <path class="st0" d="M351.3,332.2v-7.2c.1,0,.1-40.2.1-40.2v-7.2c-.1,0,27.3,0,27.3,0v7.2c-.1,0-.1,40.2-.1,40.2v7.2c.1,0-27.3,0-27.3,0Z"/>
    <path class="st0" d="M439.9,277.7h23.8v7.2c-.1,0-.1,40.2-.1,40.2v7.2c.1,0-18.7,0-18.7,0l-29.4-26.6h-.2l.2,4.9v21.8c.1,0-23.8,0-23.8,0v-7.2c.1,0,.1-40.2.1-40.2v-7.2c-.1,0,23.2,0,23.2,0l25.1,22.6h.2l-.2-4.8v-17.8Z"/>
    <path class="st0" d="M537.5,332.2l-2-5.8h-.2c-4.1,3.7-10.2,7.3-23.9,7.3-20.7,0-38.7-9.5-38.7-28.8s19.8-28.7,41.8-28.7,32.7,5.4,37,18l-26.2,2.7c-1.1-4.7-4.9-8-11.1-8s-11.6,3.8-11.6,16.1,5.4,16,12.2,16,10.6-3.3,11.1-8.4h-11.9v-11.2h38.5v7.2c-.1,0-.1,23.7-.1,23.7h-14.9Z"/>
    <path class="st0" d="M641.2,293.8c-6.2-3.1-12.5-5.4-21.4-5.4s-10,1.2-10,3.7c0,3.9,9.4,3.7,19.1,5,15.2,2,26.6,7.1,26.6,17.3s-12.8,19.3-36.8,19.3-29.3-3.3-38.5-8.9l12.3-9.9c6.9,3.7,15,6.7,25.4,6.7s10.4-1.1,10.4-3.9c0-4.1-10.5-4-20.5-5.4-14.4-2-25.3-6.6-25.3-16.7s12.2-19.3,35.1-19.3,27.1,3,35.6,7.6l-12.2,10Z"/>
    <path class="st0" d="M717.6,311.2h-26.7v7.7h32.7v13.3h-60v-7.2c.1,0,.1-40.2.1-40.2v-7.2c-.1,0,59,0,59,0v13.3h-31.8v7.3h26.7v13Z"/>
    <path class="st0" d="M776.6,332.2l-10.1-19.7h-6.6v19.7c.1,0-27.3,0-27.3,0v-7.2c.1,0,.1-40.2.1-40.2v-7.2c-.1,0,41.1,0,41.1,0,15.2,0,30.9,3.7,30.9,17.2s-4.9,12.1-12.2,14.9l14.2,22.4v.2h-30.1ZM759.9,299.9h9.2c5,0,8.8-1.1,8.8-4.8s-3.8-4.9-9.2-4.9h-8.8v9.7Z"/>
    <path class="st0" d="M805.1,277.7h29.9l12.5,30.1h.2l11.6-30.1h25.6l-24.6,54.6h-28.9l-26.4-54.6Z"/>
    <path class="st0" d="M890.7,332.2v-7.2c.1,0,.1-40.2.1-40.2v-7.2c-.1,0,27.3,0,27.3,0v7.2c-.1,0-.1,40.2-.1,40.2v7.2c.1,0-27.3,0-27.3,0Z"/>
    <path class="st0" d="M1005.1,314.1c-1.9,6.9-11.2,19.5-37.7,19.5s-40.4-9.6-40.4-28.3,15.7-29.2,40.9-29.2,34.1,11.1,36.5,20.2l-26.1,1.7c-1.6-5-4.4-9.2-10.9-9.2s-10.4,4.4-10.4,16,4.7,16.2,11,16.2,9.8-3.2,11.4-10.2l25.6,3.4Z"/>
    <path class="st0" d="M1066.4,311.2h-26.7v7.7h32.7v13.3h-60v-7.2c.1,0,.1-40.2.1-40.2v-7.2c-.1,0,59,0,59,0v13.3h-31.8v7.3h26.7v13Z"/>
    <path class="st0" d="M1080.8,316.7h24.6v14l-12.4,13.7h-11.9l9.1-12.3h-9.4v-15.5Z"/>
    <path class="st0" d="M1138.5,332.2v-7.2c.1,0,.1-40.2.1-40.2v-7.2c-.1,0,27.3,0,27.3,0v7.2c-.1,0-.1,40.2-.1,40.2v7.2c.1,0-27.3,0-27.3,0Z"/>
    <path class="st0" d="M1227.1,277.7h23.8v7.2c-.1,0-.1,40.2-.1,40.2v7.2c.1,0-18.7,0-18.7,0l-29.4-26.6h-.2l.2,4.9v21.8c.1,0-23.8,0-23.8,0v-7.2c.1,0,.1-40.2.1-40.2v-7.2c-.1,0,23.2,0,23.2,0l25.1,22.6h.2l-.2-4.8v-17.8Z"/>
    <path class="st0" d="M1337.9,314.1c-1.9,6.9-11.2,19.5-37.7,19.5s-40.4-9.6-40.4-28.3,15.7-29.2,40.9-29.2,34.1,11.1,36.5,20.2l-26.1,1.7c-1.6-5-4.4-9.2-10.9-9.2s-10.4,4.4-10.4,16,4.7,16.2,11,16.2,9.8-3.2,11.4-10.2l25.6,3.4Z"/>
    <path class="st0" d="M1344.4,316.7h24.6v15.5h-24.6v-15.5Z"/>
    <path class="st1" d="M14.2,272h27.9l9.3,26h.2l11-26h19.8l11.5,26h.2l8.4-26h24.8l-21,54.6h-23.7l-12-26.8h-.2l-11.5,26.8h-22.8l-21.8-54.6Z"/>
    <path class="st1" d="M187.1,305.5h-26.7v7.7h32.7v13.3h-60v-7.2c.1,0,.1-40.2.1-40.2v-7.2c-.1,0,59,0,59,0v13.3h-31.8v7.3h26.7v13Z"/>
    <path class="st1" d="M202.1,326.5v-7.2c.1,0,.1-40.2.1-40.2v-7.2c-.1,0,27.3,0,27.3,0v7.2c-.1,0-.1,34.1-.1,34.1h28.8v13.3h-56.1Z"/>
    <path class="st1" d="M265.6,272h35.6c25.6,0,41.2,11,41.2,27.9s-17,26.7-41.2,26.7h-35.6v-7.2c.1,0,.1-40.2.1-40.2v-7.2ZM292.9,314h4.8c9.2,0,15.4-3.8,15.4-14.7s-6.2-14.8-15.4-14.8h-4.8v29.5Z"/>
    <path class="st1" d="M351.3,326.5v-7.2c.1,0,.1-40.2.1-40.2v-7.2c-.1,0,27.3,0,27.3,0v7.2c-.1,0-.1,40.2-.1,40.2v7.2c.1,0-27.3,0-27.3,0Z"/>
    <path class="st1" d="M439.9,272h23.8v7.2c-.1,0-.1,40.2-.1,40.2v7.2c.1,0-18.7,0-18.7,0l-29.4-26.6h-.2l.2,4.9v21.8c.1,0-23.8,0-23.8,0v-7.2c.1,0,.1-40.2.1-40.2v-7.2c-.1,0,23.2,0,23.2,0l25.1,22.6h.2l-.2-4.8v-17.8Z"/>
    <path class="st1" d="M537.5,326.5l-2-5.8h-.2c-4.1,3.7-10.2,7.3-23.9,7.3-20.7,0-38.7-9.5-38.7-28.8s19.8-28.7,41.8-28.7,32.7,5.4,37,18l-26.2,2.7c-1.1-4.7-4.9-8-11.1-8s-11.6,3.8-11.6,16.1,5.4,16,12.2,16,10.6-3.3,11.1-8.4h-11.9v-11.2h38.5v7.2c-.1,0-.1,23.7-.1,23.7h-14.9Z"/>
    <path class="st1" d="M641.2,288.1c-6.2-3.1-12.5-5.4-21.4-5.4s-10,1.2-10,3.7c0,3.9,9.4,3.7,19.1,5,15.2,2,26.6,7.1,26.6,17.3s-12.8,19.3-36.8,19.3-29.3-3.3-38.5-8.9l12.3-9.9c6.9,3.7,15,6.7,25.4,6.7s10.4-1.1,10.4-3.9c0-4.1-10.5-4-20.5-5.4-14.4-2-25.3-6.6-25.3-16.7s12.2-19.3,35.1-19.3,27.1,3,35.6,7.6l-12.2,10Z"/>
    <path class="st1" d="M717.6,305.5h-26.7v7.7h32.7v13.3h-60v-7.2c.1,0,.1-40.2.1-40.2v-7.2c-.1,0,59,0,59,0v13.3h-31.8v7.3h26.7v13Z"/>
    <path class="st1" d="M776.6,326.5l-10.1-19.7h-6.6v19.7c.1,0-27.3,0-27.3,0v-7.2c.1,0,.1-40.2.1-40.2v-7.2c-.1,0,41.1,0,41.1,0,15.2,0,30.9,3.7,30.9,17.2s-4.9,12.1-12.2,14.9l14.2,22.4v.2h-30.1ZM759.9,294.2h9.2c5,0,8.8-1.1,8.8-4.8s-3.8-4.9-9.2-4.9h-8.8v9.7Z"/>
    <path class="st1" d="M805.1,272h29.9l12.5,30.1h.2l11.6-30.1h25.6l-24.6,54.6h-28.9l-26.4-54.6Z"/>
    <path class="st1" d="M890.7,326.5v-7.2c.1,0,.1-40.2.1-40.2v-7.2c-.1,0,27.3,0,27.3,0v7.2c-.1,0-.1,40.2-.1,40.2v7.2c.1,0-27.3,0-27.3,0Z"/>
    <path class="st1" d="M1005.1,308.4c-1.9,6.9-11.2,19.5-37.7,19.5s-40.4-9.6-40.4-28.3,15.7-29.2,40.9-29.2,34.1,11.1,36.5,20.2l-26.1,1.7c-1.6-5-4.4-9.2-10.9-9.2s-10.4,4.4-10.4,16,4.7,16.2,11,16.2,9.8-3.2,11.4-10.2l25.6,3.4Z"/>
    <path class="st1" d="M1066.4,305.5h-26.7v7.7h32.7v13.3h-60v-7.2c.1,0,.1-40.2.1-40.2v-7.2c-.1,0,59,0,59,0v13.3h-31.8v7.3h26.7v13Z"/>
    <path class="st1" d="M1080.8,311h24.6v14l-12.4,13.7h-11.9l9.1-12.3h-9.4v-15.5Z"/>
    <path class="st1" d="M1138.5,326.5v-7.2c.1,0,.1-40.2.1-40.2v-7.2c-.1,0,27.3,0,27.3,0v7.2c-.1,0-.1,40.2-.1,40.2v7.2c.1,0-27.3,0-27.3,0Z"/>
    <path class="st1" d="M1227.1,272h23.8v7.2c-.1,0-.1,40.2-.1,40.2v7.2c.1,0-18.7,0-18.7,0l-29.4-26.6h-.2l.2,4.9v21.8c.1,0-23.8,0-23.8,0v-7.2c.1,0,.1-40.2.1-40.2v-7.2c-.1,0,23.2,0,23.2,0l25.1,22.6h.2l-.2-4.8v-17.8Z"/>
    <path class="st1" d="M1337.9,308.4c-1.9,6.9-11.2,19.5-37.7,19.5s-40.4-9.6-40.4-28.3,15.7-29.2,40.9-29.2,34.1,11.1,36.5,20.2l-26.1,1.7c-1.6-5-4.4-9.2-10.9-9.2s-10.4,4.4-10.4,16,4.7,16.2,11,16.2,9.8-3.2,11.4-10.2l25.6,3.4Z"/>
    <path class="st1" d="M1344.4,311h24.6v15.5h-24.6v-15.5Z"/>
  </g>
</svg>