<?xml version="1.0" encoding="UTF-8"?>
<svg id="Layer_1" xmlns="http://www.w3.org/2000/svg" version="1.1" viewBox="0 0 1125.9 500">
  <!-- Generator: Adobe Illustrator 29.0.0, SVG Export Plug-In . SVG Version: 2.1.0 Build 186)  -->
  <defs>
    <style>
      .st0 {
        fill: #f7f6f6;
      }

      .st1 {
        fill: #60ba47;
      }
    </style>
  </defs>
  <g id="_x36_hZ10k">
    <g>
      <path class="st1" d="M1092.5,273.3v-58.8c0-13.7-18.8-31.1-32.7-31H21.2c-7.9-.5-7.8-17.2-1.6-18.6l1043.8-.2c22.4,0,48,23.9,48,46.3v61c0,0-1.3,1.3-1.3,1.3h-17.5Z"/>
      <path class="st1" d="M33.3,226.7v58.8c0,13.7,18.8,31.1,32.7,31h1038.6c7.9.5,7.8,17.2,1.6,18.6l-1043.8.2c-22.4,0-48-23.9-48-46.3v-61c0,0,1.3-1.3,1.3-1.3h17.5Z"/>
      <path class="st0" d="M182.3,269.7h-42.2c-.7,14.8,13.2,19.4,25.3,14.1,1.7-.8,4.2-3.4,5.6-3.4,2.1,0,7.3,7,9.4,8.5-17.9,17.5-51.3,13-53.8-15.3-1.6-17.6-.3-38.6,19.7-44,27.1-7.3,37.7,17,35.9,39.9ZM140.6,259c3.7,1.1,22.3,0,27.8,0s-1.5-10.7-2.8-12.5c-5.7-8-18.1-7.1-23.2.9-1.3,2-4.7,10.8-1.8,11.6Z"/>
      <path class="st0" d="M641.9,269.7h-43.1c1.3,11.6,8.4,17.5,20.1,16.1,3.7-.5,11.3-5.5,12.5-5.2s8.2,7.2,7.9,9.3c-17.4,16.3-50.3,11.7-53-15.2-1.6-16.1-.7-38.5,17.5-44.4,27.6-9,40.2,15.5,38.1,39.4ZM628.5,259c2.3-18-20.9-25.5-28-8.7-.5,1.3-2.9,8.7-.3,8.7h28.3Z"/>
      <path class="st0" d="M767.6,298.5h-12.6c-.2,0,.5-4.5-.5-4.5-9.4,7.9-30.2,7.6-37.6-2.7-6.9-9.6-5-26.7,7-31.5,2.1-.9,8.1-2.5,10-2.5h20.2c1.4-15.5-9.1-18.5-22-14.4-2,.6-4.3,3-6,2.6s-9.6-6-9.6-6.6c10.4-12.3,35.9-14.4,46.2-1.4,1.5,1.8,4.9,8.4,4.9,10.3v50.7ZM755,268.9h-22.9c-2,0-5.4,3.6-5.8,5.9-2.3,13.7,10.6,14.4,21,12.9,2-.3,7.7-3.2,7.7-4.9v-13.9Z"/>
      <path class="st0" d="M887.7,228.7c29.7-2.6,35.5,25.7,30.5,49.3-6.5,30.2-52.2,28.6-55.4-3.4-2-20.5-.2-43.8,24.9-45.9ZM887.6,242.1c-13.1,2.2-12.6,20.4-11.3,30.6,2,17,24.5,17.8,28,3.1,1.1-4.6,1.2-17,.5-21.7-1.3-9.2-8.3-13.5-17.2-12Z"/>
      <path class="st0" d="M1063.8,236.6c1,1.4-6.2,10.2-7.8,10.6s-8.8-4-11.2-4.6c-8.1-2.2-23.5-2.6-21.1,9.5.7,3.4,4.4,3.6,7.5,4.1,12.8,2.2,30.8-.9,33.3,16.9,4.5,31.9-41.4,32.2-57.7,15.5l7.4-9.8c9.4,5.4,22,11.6,32.9,6,4.3-2.2,6.3-9.9,2.2-12.7-10.3-6.8-36.8,2.8-39.2-18.2-3.1-27.3,27.5-29.6,46.3-21.2,1,.4,7.2,3.5,7.4,3.8Z"/>
      <path class="st0" d="M255.1,298.5h-13c-1,0-1.3-2.2-1.4-3.1-1.5-13,1.6-29.3,0-42.3-1.3-10.8-16-14.8-23.3-8s-3.6,6.4-3.6,7.1v46.2h-13.5v-69.1h13.5c.4,0-.3,7.9,0,9l4.6-4.9c11.7-9.4,29.3-4.8,34.5,9.4.4,1.2,2.3,7.8,2.3,8.5v47.1Z"/>
      <path class="st0" d="M992,298.5h-13.5v-44.4c0-1.6-2.7-7.2-4-8.5-5.8-5.7-19.5-4.6-22.5,3.5-.2.5-1.3,5.6-1.3,5.9v43.5h-13.5v-67.8c0-1.7,13-1.8,13.5-1.4s-.8,7.5.4,9c10.6-15.1,33.3-12.1,39.2,5.7.3,1,1.6,5.1,1.6,5.6v48.9Z"/>
      <path class="st0" d="M432.6,228.7c6-.5,12.6.5,18.1,2.9,2.6,1.1,9.6,5.4,9.8,8.2s-8,8.1-8.6,8.3c-2,.5-5.8-3.8-8.4-4.8-7.9-3.1-18.8-1-22,7.6-2,5.5-2,20.5,0,26,4.5,12.1,22.7,11.3,29.6,1.8,1.3,1.9,9.1,8.2,9.4,9.5.5,3-10.3,8.5-12.9,9.3-18.4,5.9-38.8-2.1-40.9-22.9-2.1-21.2.2-43.8,25.8-45.9Z"/>
      <path class="st0" d="M112,236.9c3.9,4.3,1.7,3.3-.1,5s-5.4,5.9-6.5,6.2-9.4-5.8-14.2-6.2c-17.6-1.5-18.7,15-17.5,28.3,1.6,18.1,20.1,20.5,31,8.5,1.4,2.1,10.2,8.4,9,10.7-2.5,4.9-15.4,9.4-20.7,9.9-31,2.4-35.7-22.8-32.7-47.9,2.8-23.8,37.4-30.1,51.6-14.6Z"/>
      <path class="st0" d="M802.2,209.6c2.7.8.8,16.5,1.3,19.8,12.5-1.6,9.8,2.4,9.9,12.6h-9.9s0,41.7,0,41.7c0,2.4,9.9.8,9.9,1.3v13.5h-13c-1.8,0-6.4-3.3-7.6-4.9s-3.6-7.7-3.6-9v-42.6c-1.3-.2-6.9.3-7.2,0s-.3-11.4.8-12.2,6.3,0,6.3-.4v-19.7c3.4.6,10.2-.9,13,0Z"/>
      <path class="st0" d="M545.9,211c.6-1.9,12.2-1.9,13.5-1,1.9,1.3.3,16.1.8,19.4,12.5-1.6,9.8,2.4,9.9,12.6h-9.9s0,41.7,0,41.7c0,2.5,8.2.3,9.5,2.2s-.1,9.9.4,12.6c-9.3.3-19.7.8-22.9-9.8-.2-.7-1.3-6.4-1.3-6.8v-39.9c0-.3-6.3.3-6.3,0v-12.6c0-.3,6.3.3,6.3,0,0-3.8-.8-15.9,0-18.4Z"/>
      <path class="st0" d="M290.1,209.6v19.7h9.9v12.6h-9.9v40.8c0,3.4,9.9,1.7,9.9,2.2v13.5c-7.4,0-15.2,1.4-20.1-5.4s-3.2-6.1-3.2-6.7v-44.4c-1.3-.2-6.9.3-7.2,0s-.3-11.4.8-12.2,6.3,0,6.3-.4v-19.7h13.5Z"/>
      <path class="st0" d="M317.9,230.7c.6-1.9,12.2-1.9,13.5-1s.6,5.7.8,7.7c8.6-9.8,21.5-12.2,31.9-3.6l-7.7,12.6c-1.9.4-2.6-1.8-4.2-2.6-4.9-2.4-10.8-2.8-15.5.3s-4.5,5.3-4.5,6.3v48h-14.4v-67.8Z"/>
      <path class="st0" d="M673.3,298.5h-13.5v-69.1c9.1.5,15.4-3.4,13.5,9l6-6.1c6.2-3.8,12.2-4.6,19.1-2.4s8.3,3.2,6.3,6.3c-.8,1.3-7,10.3-7.7,10.3s-5.5-5.3-13.2-4.2-10.6,4.6-10.6,9.2v47.1Z"/>
      <path class="st1" d="M20.1,188.3c1.1-.9,3.2-1.4,4.6-1.2,4.4.6,18,23.9,22.4,27.9,1.3,3.8.7,6.6-3.5,7.2-8,1.1-30.4.8-38.7,0-4.9-.5-5.8-2.5-4.4-7.2l19.5-26.7Z"/>
      <path class="st1" d="M1105.8,311.7c-1.1.9-3.2,1.4-4.6,1.2-4.4-.6-18-23.9-22.4-27.9-1.3-3.8-.7-6.6,3.5-7.2,8-1.1,30.4-.8,38.7,0,4.9.5,5.8,2.5,4.4,7.2l-19.5,26.7Z"/>
      <path class="st0" d="M510.9,298.5v-69.1h13c.7,0,1.6,2.2,1.4,3.1-1.8,19.8,2.3,43.6,0,62.9-.1.9-.4,3.1-1.4,3.1h-13Z"/>
      <rect class="st0" x="375.3" y="229.4" width="13.5" height="69.1"/>
      <rect class="st0" x="831.3" y="229.4" width="13.5" height="69.1"/>
      <path class="st0" d="M510.9,216.8v-14.4h13c2,0,2,14.4,0,14.4h-13Z"/>
      <rect class="st0" x="375.3" y="202.4" width="13.5" height="14.4"/>
      <rect class="st0" x="831.3" y="202.4" width="13.5" height="14.4"/>
    </g>
  </g>
</svg>