<?xml version="1.0" encoding="UTF-8"?>
<svg id="Layer_1" xmlns="http://www.w3.org/2000/svg" version="1.1" viewBox="0 0 500 500">
  <!-- Generator: Adobe Illustrator 29.0.0, SVG Export Plug-In . SVG Version: 2.1.0 Build 186)  -->
  <defs>
    <style>
      .st0 {
        fill: #909195;
      }

      .st1 {
        fill: #f1f2f2;
      }

      .st2 {
        fill: #3c52a4;
      }

      .st3 {
        fill: #9ab0db;
      }

      .st4 {
        fill: #1b1d50;
      }

      .st5 {
        fill: #6a7dbb;
      }
    </style>
  </defs>
  <g id="Ozh9Om">
    <g>
      <path class="st3" d="M255.8,110.4c37.3,2.6,68.1,34.3,70.1,71.5,3,56.6-53.8,97.4-106.4,74.6-2.6-1.1-5.7-2.6-7.9-4.4,5.8,2.1,11.7,4.3,17.9,5.3,48.2,7.9,90-33.1,83-81.3-6.2-42.5-48.4-70.2-90.1-58.9-3.5,1-6.9,2.5-10.4,3.5,0-.6.8-.8,1.2-1,8.4-5,21.3-8.7,30.9-9.4s8.3-.2,11.7,0Z"/>
      <path class="st1" d="M-.3,304.3c1.1-1.1,5.2-1.2,6.4-.8s1.1,2.2,1.1,3.1v17.7h25.5v-20.4c2.2-.4,7.2-1.5,7.5,1.5l-.2,46.5c-.7,1.4-7.3,1-7.3.2v-20.6H7.2v19.8c0,2.2-6,1.7-7.5,1v-48Z"/>
      <path class="st1" d="M500.3,343.5c-3.7,9.5-14,11.9-23.1,8.7-1.4-.5-7.5-3.9-7.8-5.2s1.2-2.4,2.2-2.3,5,3.5,6.7,4.2c6.8,2.7,18.5,1,18.4-8.1,0-13.6-27.4-8.8-27.2-25.4.1-10.1,10.6-13.8,19.2-12.3,1.4.2,8,2.4,8.5,3.4s-.6,3.1-1.4,3.2-4.4-2.3-5.6-2.7c-7.5-2.4-18.1-.1-17.1,9.6s14,9.5,20,13,5.7,4.4,7.1,8.1v5.8Z"/>
      <path class="st0" d="M223.7,389.8c-.9-6.1-.2-12.4-.4-18.5.4-2.2,6.2-1.7,8.1-1.5,7.1.7,9.1,8.9,2.3,11.9,1.2,2.7,3.6,5.1,3.8,8.1h-2.9c-1.4-1.9-2.4-5.9-3.7-7.7s-3.3,0-4.2-.3c-.4.4.5,6.8-.4,7.9h-2.5ZM226.6,379.3h6c.3,0,2.1-2.2,2.2-2.8.7-4.3-5.6-4.2-8.3-3.9v6.7Z"/>
      <path class="st0" d="M248.3,389.8c-10.9-2.8-9.8-19.4,1.4-20,12.8-.7,15.1,16.1,3.6,20h-5ZM249.1,372.8c-5.8,1.1-7.4,9.5-2.5,12.8,6.3,4.3,14-2.4,10.5-9.2-1.5-2.9-4.8-4.1-8-3.5Z"/>
      <path class="st0" d="M209.5,389.8c-11.8-3.8-9.1-21,3.6-20,1.8.1,7.8,1.9,5.2,4s-2.8-.6-4.5-1c-10.3-2.1-11.6,13.9-1.6,14.1s4.7-.7,4-3.8c-1.8.7-4.5-.6-3.2-2.5s4.9-.2,6.1-.4v7.9c0,.2-3.8,1-4.2,1.7h-5.4Z"/>
      <path class="st0" d="M285,389.8l-.4-19.3c4.9-1.9,13.4-.9,13.4,5.8,0,5.4-5.6,6.9-10.1,6.5-.1,2.4.3,4.8-.4,7.1h-2.5ZM288.2,372.7c-1,.3-.9,6-.5,6.6,1,1.4,8.6.5,7.1-4.2s-4.7-3.1-6.6-2.4Z"/>
      <path class="st0" d="M270,389.8c-1.7-.4-5.4-3.6-5.4-5.2v-14.4c0-.3,2.9-.3,2.9,0v13.1c0,2.8,4.8,4.7,7.3,2.7s1.9-2.4,1.9-2.7v-13.1c0-.3,2.9-.3,2.9,0v14c0,1.9-3.6,5-5.4,5.6h-4.2Z"/>
      <path class="st4" d="M251.3,141.7c-31.7-.3-54.1,30.6-43,60.7,5,13.6,17.2,24.1,31.2,27.6l11.8,1.6c-9.6,9-23.3,15.6-36.5,16.5-2,.1-8.3.3-9.8-.2s-4.9-3.8-5.8-4.6c-34-30-33.4-84,.4-113.8,1-.9,4.7-4.1,5.7-4.3,3.7-.9,12.5.2,16.4.9,10.8,2.1,21.9,7.8,29.6,15.6Z"/>
      <path class="st5" d="M217.5,253c0-.7.9-.4,1.4-.4,4.2.4,7.8,1,12.2.8,62.6-3.2,87.3-84.7,36-121.5-14.7-10.6-27.7-12.8-45.5-12.2s-1,.5-1.6-.4c25.8-8.2,55.4,2.3,72.2,22.9,18.5,22.7,20.7,55.1,5.4,80.1-16.5,27-49.8,39.4-80.1,30.6Z"/>
      <path class="st1" d="M114.8,352.7l8.8-49.4c1.5-1.1,2.9-.7,3.7.9l14.5,35.1,14.5-35.6c1.3-1.8,3.4-1.4,4.1.8,4,14,4.4,31.1,8.3,45.5v2.3c-.5.5-6.8,1-7.2-.5-2-9.8-3.1-19.9-4.9-29.7s.3-.7-.8-.6l-12.3,31.7c-.6.7-2.7.6-3.4,0l-12.9-32.6c-1.6,2.7-4.2,32.1-5.8,32.1h-6.5Z"/>
      <path class="st1" d="M272.9,337.6v-33.8c2.3-.6,4.8-.6,7.1,0v49c0,.8-3.2,1-3.8,0-9.8-11.7-19.3-23.7-29.6-34.9v33.6c0,1.3-7.4,2-7.5-.4v-45.9c-.3-2.4,2-3.6,3.8-2.1,9.4,10.6,18.1,21.9,27.7,32.4.7.7,1.5,1.6,2.3,2.1Z"/>
      <path class="st1" d="M67.3,303.9v31.9c0,.4.8,3,1,3.5,4.5,11.2,21.1,8.7,22.3-4.4s-.7-20.5,0-30.3c.5-1.5,4.7-1.4,6-1.1s1.4,1.1,1.5,2.3c.7,7.5.6,22.4,0,30.1-1.8,23-35.2,23.7-38.3,1.1v-32.3c.5-1.9,5.8-1.1,7.4-.7Z"/>
      <path class="st1" d="M179.7,352.7c-.7-.2-.8-1.5-.4-2.1,7.3-14.2,12.7-29.3,19.9-43.5,1.9-3.8,3-6.9,5.9-1.4,7.3,14.4,12.9,30,20.2,44.5,2.1,3.5-5.7,2.9-6.7,2.1s-3.7-9.5-5-10h-22.1c0,0-.7.2-.7.2-.7,1.3-4.2,10.2-4.8,10.2-1.4,0-5.3.3-6.3,0ZM210.8,336l-8.8-19.2-8.3,19.2h17.1Z"/>
      <path class="st2" d="M279.2,220.5c.3.3-2.2,3.8-2.6,4.3-14.6,20-42.2,33-66.7,24.9,0-.7.9-.4,1.5-.4,15.8-.6,29.9-4.5,42.6-14.2s4.1-4.1,5.3-4.8c3.6-1.9,10.6-2.2,14.3-5.7l5.7-4.1Z"/>
      <path class="st2" d="M278.8,152.5c-3.7-3.3-8-6.2-12.7-7.9s-5.3-1.1-6.9-1.9-2.2-2.3-3.2-3.1c-13.2-10.7-29-16-46.1-16.1,2.2-1.3,5.3-1.9,7.8-2.2,21.4-3.1,44.3,8.1,57.3,24.8,1.4,1.8,3.4,4.2,3.8,6.5Z"/>
      <path class="st1" d="M304.7,306.8v19.2h22.7c.9,0,.9,2.9,0,2.9h-22.1s-.6.6-.6.6v20.2h26.1c.9,0,.9,2.9,0,2.9h-29.4v-48.6s.6-.6.6-.6h28.8c.9,0,.9,3.3,0,3.3h-26.1Z"/>
      <path class="st1" d="M436.4,302.7c3.9-.2,8.8.7,12.3,2.4,1.2.6,6,3.7,6.1,4.8s-1.2,2.5-2.2,2.2-2.9-2.2-3.9-2.8c-21.3-12-42.4,12.5-28.8,31.7s17.4,11.5,26.8,6.9,5.6-4,6-4c.9-.2,2.4,1.2,2.3,2.2-.2,1.9-7.8,5.6-9.7,6.2-20.2,6.2-38.3-12.2-31.9-32.3,3.1-9.8,13-16.9,23.2-17.3Z"/>
      <path class="st1" d="M375.2,306.8h-14.2v45.9h-3.3v-45.9h-13.6c-.9,0-.9-3.3,0-3.3h30.9c1,0,.5,2.6.2,3.3Z"/>
      <path class="st1" d="M390.2,304.1c.3-.9,3.8-1.2,3.8.4v47.5c0,.9-3.8.9-3.8,0v-48Z"/>
    </g>
  </g>
</svg>