<?xml version="1.0" encoding="UTF-8"?>
<svg id="Layer_1" xmlns="http://www.w3.org/2000/svg" version="1.1" viewBox="0 0 500 500">
  <!-- Generator: Adobe Illustrator 29.0.0, SVG Export Plug-In . SVG Version: 2.1.0 Build 186)  -->
  <defs>
    <style>
      .st0 {
        fill: #fff;
      }
    </style>
  </defs>
  <g id="YA71Va">
    <g>
      <path class="st0" d="M378,364.8v-33.3h13v53.6c-3.5-.3-7.5.6-10.8,0-7.5-1.4-21.6-28.7-29.7-33.3v33.3c-2.4,0-13,.8-13-2.2v-51.4c3.9.4,8.6-.7,12.3,0,5.9,1.1,21.7,28.4,28.3,33.3Z"/>
      <path class="st0" d="M490.9,377.9c-1.2,1.8-20.2,7-23.8,7.3-22.9,1.7-47.9-11.5-37.7-37.7s55-25.2,60.1,0c-4.1-1.3-10.3,2.2-13.5,1.6s-2.7-5.2-6.4-7c-11.4-5.6-26.6.4-27.6,13.8-1.2,15.4,10,20.4,23.6,19.1,7-.7,13-2.1,10.9-10.1h-15.9s0-8.7,0-8.7h30.4c-.8,3.7,1,20.2,0,21.7Z"/>
      <path class="st0" d="M250.5,347.5c-4.1-1.3-10.3,2.2-13.5,1.6s-3.8-9.7-16.2-8.9c-22,1.5-18.9,42.4,8,34.2,6.1-1.9,7.3-9.5,8-9.6,3.8-.6,9.6,2.7,13.6,3-6.7,24.7-49,22.9-57.2,0-12.9-36.5,44.1-53.1,57.2-20.3Z"/>
      <rect class="st0" x="286.7" y="331.5" width="13" height="53.6"/>
      <path class="st0" d="M494.5,289.5h-123.8v-57.9h110.7c7.1,0,7.1-33.3,0-33.3h-110.7v-52.1h120.2c3.1,0,4.9-27.7,0-31.8H3l-3,9.3v191.3c0,3.5,2.4,6.1,5.5,7.6l484.7.3c14.2,2,10.6-33.3,4.3-33.3ZM34.8,146.2h115.8l-115.8,126.7v-126.7ZM68.1,289.5c38-42.3,76.6-84.1,115.1-125.9,4.2-4.6,7.9-9.3,12.3-13.8,1.2-1.2,1.2-3.6,1.4-3.6h107.1c-41.6,48.6-85.6,95.4-128.1,143.3h-107.9ZM336,289.5h-114.4l114.4-124.5v124.5Z"/>
      <path class="st0" d="M55.9,366.2l-6.6-5c19.3-3,20-26.8.7-29.7-12.3-1.8-28.5,1.3-41.3,0v51.4c0,3.2,14.5,3.2,14.5,0v-21c14.4-4.3,22.8,19.2,30.4,22.4,4.6,1.9,11,.2,15.9.7l-13.7-18.9ZM23.3,353.3v-13c7.1.5,30.2-3.2,25.9,9.2-1.9,5.6-20.7,3.4-25.9,3.8Z"/>
      <path class="st0" d="M136,331.8c-4.2,0-11.9-1.6-15,1.2l-25.3,52.1c4-.4,9.4,1,13-.7,3.8-1.8,4.6-10.9,8.2-12.1,1.9-.7,23.8-.7,24.9,0,1,.6,3.6,10.6,6,12.1,3.2,2,10.6.1,14.5.7l-26.3-53.3ZM120.3,363.4l7.2-17.4c1.8-1.3,8.2,15.1,8.7,17.4h-15.9Z"/>
    </g>
  </g>
</svg>