<?xml version="1.0" encoding="UTF-8"?>
<svg id="Layer_1" xmlns="http://www.w3.org/2000/svg" version="1.1" viewBox="0 0 1015.8 500">
  <!-- Generator: Adobe Illustrator 29.0.0, SVG Export Plug-In . SVG Version: 2.1.0 Build 186)  -->
  <defs>
    <style>
      .st0 {
        fill: #faa91a;
      }

      .st1 {
        fill: #f9a11c;
      }

      .st2 {
        fill: #4f2a2a;
      }

      .st3 {
        fill: #d02227;
      }

      .st4 {
        fill: #8f3b32;
      }

      .st5 {
        fill: #f6961e;
      }

      .st6 {
        fill: #f68e1f;
      }

      .st7 {
        fill: #00a29e;
      }

      .st8 {
        fill: #1abab9;
      }

      .st9 {
        fill: #fdd801;
      }

      .st10 {
        fill: #19938e;
      }

      .st11 {
        fill: #0e8380;
      }

      .st12 {
        fill: #901a1c;
      }

      .st13 {
        fill: #127d7c;
      }

      .st14 {
        fill: #943534;
      }

      .st15 {
        fill: #483939;
      }

      .st16 {
        fill: #651514;
      }

      .st17 {
        fill: #a41f22;
      }

      .st18 {
        fill: #fece0a;
      }

      .st19 {
        fill: #f68620;
      }

      .st20 {
        fill: #735f55;
      }

      .st21 {
        fill: #296e6e;
      }

      .st22 {
        fill: #ba2125;
      }

      .st23 {
        fill: #543e35;
      }

      .st24 {
        fill: #22a6a2;
      }

      .st25 {
        fill: #e42026;
      }

      .st26 {
        fill: #ed3b24;
      }

      .st27 {
        fill: #27a7a5;
      }

      .st28 {
        fill: #59342d;
      }

      .st29 {
        fill: #1f7472;
      }

      .st30 {
        fill: #414042;
      }

      .st31 {
        fill: #4a3836;
      }

      .st32 {
        fill: #fdc111;
      }

      .st33 {
        fill: #f26522;
      }

      .st34 {
        fill: #f8f9f9;
      }

      .st35 {
        fill: #d02127;
      }

      .st36 {
        fill: #fdb516;
      }

      .st37 {
        fill: #02a7a1;
      }

      .st38 {
        fill: #dc2126;
      }

      .st39 {
        fill: #43bcc2;
      }

      .st40 {
        fill: #f16422;
      }

      .st41 {
        fill: #5d766d;
      }

      .st42 {
        fill: #2baca9;
      }

      .st43 {
        fill: #118481;
      }

      .st44 {
        fill: #fade06;
      }

      .st45 {
        fill: #d82127;
      }

      .st46 {
        fill: #fbad19;
      }

      .st47 {
        fill: #f18720;
      }

      .st48 {
        fill: #e87a23;
      }

      .st49 {
        fill: #296262;
      }

      .st50 {
        fill: #365453;
      }

      .st51 {
        fill: #f57e20;
      }

      .st52 {
        fill: #47827a;
      }

      .st53 {
        fill: #06b4af;
      }

      .st54 {
        fill: #561919;
      }

      .st55 {
        fill: #8a181a;
      }

      .st56 {
        fill: #524d44;
      }

      .st57 {
        fill: #dd2026;
      }

      .st58 {
        fill: #79584e;
      }

      .st59 {
        fill: #ef4124;
      }

      .st60 {
        fill: #90211f;
      }

      .st61 {
        fill: #f15723;
      }

      .st62 {
        fill: #f47521;
      }

      .st63 {
        fill: #434e4c;
      }

      .st64 {
        fill: #f8981d;
      }

      .st65 {
        fill: #46bcc5;
      }

      .st66 {
        fill: #b12024;
      }

      .st67 {
        fill: #ee2824;
      }

      .st68 {
        fill: #f36f22;
      }

      .st69 {
        fill: #8b2f28;
      }

      .st70 {
        fill: #696c63;
      }

      .st71 {
        fill: #f7931e;
      }

      .st72 {
        fill: #f8991d;
      }

      .st73 {
        fill: #931c1d;
      }

      .st74 {
        fill: #127675;
      }

      .st75 {
        fill: #f7a11d;
      }

      .st76 {
        fill: #30bebf;
      }

      .st77 {
        fill: #f8f9fa;
      }

      .st78 {
        fill: #4b3837;
      }

      .st79 {
        fill: #f8971e;
      }

      .st80 {
        fill: #f68720;
      }

      .st81 {
        fill: #41babe;
      }

      .st82 {
        fill: #46403f;
      }

      .st83 {
        fill: #fcd605;
      }

      .st84 {
        fill: #7b1415;
      }

      .st85 {
        fill: #f04c23;
      }

      .st86 {
        fill: #650d0d;
      }

      .st87 {
        fill: #804c43;
      }

      .st88 {
        fill: #f7911f;
      }

      .st89 {
        fill: #5a0e0e;
      }

      .st90 {
        fill: #ed2225;
      }

      .st91 {
        fill: #fdbd13;
      }

      .st92 {
        fill: #29867b;
      }

      .st93 {
        fill: #a31e21;
      }

      .st94 {
        fill: #f37321;
      }

      .st95 {
        fill: #864239;
      }

      .st96 {
        fill: #03aca6;
      }

      .st97 {
        fill: #ef3c24;
      }

      .st98 {
        fill: #951b1d;
      }

      .st99 {
        fill: #faa71b;
      }

      .st100 {
        fill: #883d34;
      }

      .st101 {
        fill: #83483e;
      }

      .st102 {
        fill: #fedf00;
      }

      .st103 {
        fill: #8f2723;
      }

      .st104 {
        fill: #9d1d20;
      }

      .st105 {
        fill: #17b6b1;
      }

      .st106 {
        fill: #8e2723;
      }

      .st107 {
        fill: #cf2426;
      }

      .st108 {
        fill: #f78f1f;
      }

      .st109 {
        fill: #ee3d24;
      }

      .st110 {
        fill: #571716;
      }
    </style>
  </defs>
  <g id="_x36_DlSFP">
    <g>
      <path class="st67" d="M235.6,135.1c10.6,9.3,16.8,22.5,22.7,35.1,22.6,48.3,35.3,101.4,63.4,147.3l-.4,2.9c-13.2-7.5-26.8-23.3-41.2-27.9-2.3-2-3.2-4.1-2.5-6.3-.2-6-.8-11.9-1.8-17.8-10.4-31.2-19.4-63.1-27.4-95.1l-2.4-1.9c-2-9.4-5.8-17.6-11.6-24.7-2.2-.3-4.7-.7-7.6-1.3-.4.8-.8.7-1.3,0-.4-5.1,4.1-14.4,10.2-10.2Z"/>
      <path class="st34" d="M640.4,208.7c-8.6,0-23.7-1-29.8,6.4-2.5,3.1-5.6,15.1-8.9,15.2s.8-28.2,1.9-29.2c2.2-2.1,2.5,2.3,4,2.9,4.9,1.9,65.4,1.8,74.1.9,5.3-.5,5-2.5,9.4-3.9-.9,9.1,2.4,18.2,1.3,27.3s-.8,3.8-2.5,1.9-2.1-7.9-3.2-10.1c-2.6-5.3-7.4-11.4-13.9-11.4h-19.7v86.9c0,1.4,1.9,8.1,3.1,9.6,3,3.9,7.9,3.4,11.9,4.6s3.3-.5,2.8,2.9h-47c-.6-3.5.7-2.1,2.8-2.9,5.8-2,13.7-3.2,13.7-11.7v-89.5Z"/>
      <path class="st34" d="M740.6,204.9c.6,3.5-.7,2.1-2.8,2.9-7.7,2.7-11,1.6-12.3,11.8-3.3,24.2,1.8,55.6.4,80.6,2.5,11.5,21.5,9.8,30.2,7.2,10.9-3.4,10.8-10.6,16-18.3,1.1-1.6,1.4-3.5,4-2.9l-5.1,26.6h-73.6c-.8-4.1,5.6-3.4,8.5-4.8,6.6-3.2,6.4-12.9,6.8-19.9,1-17.5.9-40.9,0-58.5-.3-6-.3-16.3-5.7-19.6-3.4-2.1-9.9-.9-9.5-5h43.1Z"/>
      <path class="st89" d="M222.9,128.8c.8,3.7-2.4,8.7-5.1,11.4-7,20.2-15.2,39.7-24.8,58.5l-3.1,2.4c-15.2,34.1-36.7,65.5-65,90.1-4.1,3.6-15.9,12.8-20.1,10.2-.4,0-.9,0-1.3,0-2.5-1.9,2.6-6.4,5.1-7.6l4.1-2.8c18.3-21.9,36.4-44.7,54.3-68.3,0-4.7,4-9.7,7.6-12.7-1-2.3,1.5-6.7,3.8-7.6-1-1.2-.2-2.1,1.3-2.5-.3-2.4,2-6,3.8-7.6,0-2.2,1.5-5.6,3.8-6.3-1.5-2.6,1.4-6.7,4-7.5l4.9-7.7c-.4-.5-.8-1-1-1.5-.4-1.1,8.7-19.5,11.2-20.1l1.3-1.3c.9-3.7,1.7-7.5,2.5-11.4.1-.1-.3-1.6.9-2.6,2.8-2.3,8.2-4.9,11.8-5Z"/>
      <path class="st89" d="M175.9,197.3l1.1,1c-1.9,2.5-2.7,4.7-2.3,6.6.9,2-.4,4.7-2.5,5.1-1.6,5.2-4.6,10.3-8.9,15.2-4.3,8.3-10.5,17.1-16.6,24.7-2.8,2.6-3.9,1.6-5-1.9-1.5.3-3.2-.6-5.1-2.5l-6.3-3.8c-1.8,3.1-3.8,2.3-3.8-1.3-1.7-2.1-3.8-3.8-6.3-5.1-1.9,1.6-4.1.7-6.3-2.5-1.7,1.6-2.1.9-1.3-1.3-3.3-.3-5-1.6-5.1-3.8.1-.8-.2-1.9,0-2.5,18.1-4.1,35.2-11.3,51.3-21.5-.3-3.8,2.6-5.1,6-5.2-.2-8.4,14.7-13.2,11.3-1.2Z"/>
      <path class="st66" d="M228,130.1c1,.4,1.6,1.1,2,2.1s-6.9,15.5-8.3,18.2c-3.1,13.1-6.9,25.8-11.4,38.1,1.1.3,1.1.8,0,1.3-3.4,11.1-6.8,22.1-10.2,33-1.9,1.6-3.7,3.3-5.2,5.2-7.9,19-17.2,37.4-27.8,55.1l-8.3,5.5c-5.1,10.7-19.3,20.4-29.4,26.9-2.7.3-4.1,2.8-4.1,7.6-.4.9-.8.9-1.3,0-.7-1.1-2.7-3.5-3.8-5.1.7-3.6,1.8-7.1,3.8-10.2,5-2.4,8.7-5.6,11.1-9.5l28.1-27.9c2.3-4.4,4.8-6.7,7.7-7,3.7-10.6,8.1-21,13.4-31.2,6.1-5.1,10.5-12,13.2-20.8,8.8-26,17.8-52.2,26.8-78.7-1.8-2.9.9-3.6,3.8-2.5Z"/>
      <path class="st90" d="M155.6,319.1c0,.6,0,1.2,0,1.8-.3,1.3-21.3,14.9-22.6,15.1s-1.8,0-2.7-.4c-1.1-2.1-1.7-4.9-2.5-6.3,1.2-1.6,1.4.1,1.3,0-3.6-3.9,9.2-13.2,13.8-13.2,3.3-3.1,5.9-3.8,7.7-2.1,5.5-6.5,11.6-12.4,18.4-17.7,4.2-6.3,8.7-12.3,13.3-17.8.6-2.3,1.9-4.8,4.1-7.5,4.4-14.5,9.2-29.8,14.5-44.4.5-1.5,1.7-2.7,3-3.9-1.7-3.2.9-12.6,5.1-12.7.7,1,1.3,2,1.1,2.9-4.6,40.2-15.4,87.6-54.4,106.2Z"/>
      <path class="st61" d="M216.5,187.2c-1.3,23.8-2.8,48.5-5.8,72.4-3.3,25.7-11.4,50.4-36.4,61.2-12.7,5-24.3,11.2-34.9,18.7-1.2,2.9-2.6,4.5-4.1,5-.9-1.7-1.7-3.5-2.5-5.1-.3-.5-.6-.9-.6-1.4-.4-3.4,28.1-20.3,33.6-21.4-1.7-1.8-.9-2.5,1.3-1.3,16.2-10.4,28.9-29.8,34.3-48.2-.9-.9-1.5-2-1.2-3.3,6.3-24,9.9-48.1,13.2-72.7.2-3.4,1.2-4.7,3.2-4Z"/>
      <path class="st84" d="M217.8,145.3c1.8.7.5,3.7-1.3,3.8l-12.7,33c-3.5,15.5-10,33.6-20.3,45.7-3.7,9.1-9.1,19.8-14.4,28.1-1.9,3-5.5,8.2-8.5,8.7-10.8,18.7-28.9,32.2-47.3,43l-2.2-1.1c-.5-.5-1.8-.7-2.5-1.3,0-1.5.3-3,1.5-3.9,18.3-13.3,28.9-21.3,43.3-39.7,14.4-18.4,27.4-39.3,36.4-60.4,10.5-19.8,18.3-40.7,27.9-60.9,1.3.6,1.3,2.3,0,5.1Z"/>
      <path class="st80" d="M221.6,182.1c.9,2.9,1,6,0,8.9-.7,6.9-.7,13.7,0,20.6l-1.2.9c1.5,26.1,4.1,52.1,8,77.9l-.8,13c-2.4,3.8-3.1,7.3-2.2,10.6-7.4,6.7-14.1,14.7-21.6,21.6-1.7.9-2.1-.3-1.3-3.8,1.4-2.3,0-2-3.9.7-14.2.8-28.2,2.9-42,6.4l-2.4-.8c-.4.6-.8.6-1.3,0v-1.6c14.6-6.2,30.2-9.2,45.6-11.9l1.5-3.7c7.3-4.2,16.3-15.8,16.8-24.5,1.1-32.6,1.8-65.3,2.1-98-.5-7.1,0-14.2,1.3-21.6-1.7-1.6-1.2-4.9,1.3-5.1,1.7,2,.8,7.4,0,10.2Z"/>
      <path class="st33" d="M225.4,149.1c3.6-8,11.5-.4,10.2,5.1-.4.9-.8.9-1.3,0-1.6.7-3.3-.3-4.3-1.5-3.9,5.4-6.7,11.9-8.4,19.3-.4,1.6-.9,2.9-1.3,5.1-1.5,16.1-3.2,32.2-5.1,48.2-.6,1.1-.8,2.2-.8,3.4-.3,21.4-1,39.7-5.6,60.7-5.1,23.1-23.2,32.3-44.4,38.7l-.2,1.6c-12.7,2.8-21.3,8.9-25.9,18.3l-1.9.4c-.7-1.3-.8-2.9-1.3-3.8,1.5-1.3.9-3.2,2.2-5,4.9-7.3,28.3-16.3,37-21.2,13.6-7.6,15.1-9.8,23.2-22.5,3.5-5.4,6.4-12.7,8.1-19.8,6.9-28.1,7-60,10.8-88.9-.7-.5-1.2-1-1.5-1.6-.7-1.5,2.8-14.8,4-17.4.4-7.5,2.5-13.9,6.3-19Z"/>
      <path class="st72" d="M222.9,212.5c0,8.2,8.1,50.3,17,53.4,2.9,1,7.1-42.9,4.6-48.3-.9-.8-.9-1.7,0-2.5-.9-4.1-.9-8.6,0-12.7,1.8-.6,2.2,3.5,1.3,5.1,3.6,26.3,5.2,53.5,6,79.3l-1.3,2.8c4,3.8-1.6,6.8-4.7,4.2-.3-.2,6.7-.3,3.8,2.5-3.5,1.8-6.9,4-10.2,6.3-3.3-.3-4.3-3.6-2.8-9.8-5.1-9.2-8.4-19.4-9.9-30.8l-2-1.9c-2.6-16-4-31.8-4.4-47.5,0-6.9-1.1-15.5,1.3-21.6,1.2,6.9,1.7,14.5,1.3,21.6Z"/>
      <path class="st62" d="M219.1,198.6c-.7,28.1-1.1,56.4-1.2,84.8-3.1,30.4-14,42.6-45.1,46.6-14.8,2.2-25.6,8.3-32.4,18.3,3.5,1.4.7,7.8-2.5,2.5-.4-.8-.8-1.7-1.3-2.5,3.7-13.7,17.3-15.1,27.9-20.3,20.2-5.7,40.7-16.7,44.5-39.3,4.3-20.9,6.3-42,6.3-63.5.9-16.4,2-32.1,5.1-48.2-.1,7.3-1.1,14.3-1.3,21.6Z"/>
      <path class="st76" d="M61.7,243c1.1.4,1.1.8,0,1.3l-1.7,3.7c1.7,12.9-5.2,22.5-17.3,26.7-3.6-2.5-7.1-5.5-10.2-7.6-.7-3.3-1.7-6.5-2.9-9.7-3.3,2.2-8.4,3.5-7.2-1.7,3.2-1.4,7.9-2.5,11.4-3.8,4.6.2,10.1-1.4,14-3.8,4.8-1.7,9.4-3.5,14-5.1Z"/>
      <path class="st110" d="M191.2,171.9c2.3.6.7,3.4-1.3,3.8.6,2.7-.7,6.6-3.8,5.1l-8.5,16.4h-1.7c0,.1-1.9-4.9-1.9-4.9-2.7-.8-1.6,1.8-2.1,2.2s-3.5-1.5-4.9-1c-.8,4,2,2.2,4.3,2.5s.5,5.1-1.8,5.1l-2.5-3.8c1,5.5-2,3.7-6.3,3.8l2.5,5.1c-10.1-1.6-14.1,9.3-24.1,8.9l1.3,2.5c-3.2.9-6.6,1.1-9.8,2.3-5.8,2.2-8.2,6.5-14.3,4.1l2.5,1.3c-.7,2.5-2.7,2.9-5.1,2.5l1.3-2.5h-7.6c.5-1.7,2-1.9,2.5-2.5,18.6-5.6,35.3-14.8,50.8-26.6l-.5-1.7c11.2-6.7,20.8-15.9,29.4-25.5,2.5-2.3,2.6.4,1.6,3.1Z"/>
      <path class="st10" d="M82,235.4c1.2,16.7,1.9,35.3,1,53,0,.9-1.2,2.1-2.1,2.6,2.9,2.3,1.6,7.5-1.4,9-5.1-1.9-8.7-6.2-12.7-8.9,2.1-6.2,3.3-12.7,3.1-19.8,1.8-10,2.9-20.3,3.1-30.6l1.3-1.6c.1,0-.5-1.7.9-2.5,1.7-1,4.9-.7,6.7-1.3Z"/>
      <path class="st86" d="M189.9,201.1c-1.1,5.4-4.1,12-6.7,16.8-12.5,23.6-31.7,52.5-51.6,70.2-7.1,6.3-15.5,11.1-22.9,17.1-1.5-1.1-3.1-1.7-3.8-3.8,1.6,0,13.5-7.5,15.7-9.1,28-20.3,53.2-60.7,69.3-91.2Z"/>
      <path class="st52" d="M85.8,234.1l1.7.4c1.1,20,2,40.2,2.1,60.3l-2.5,1.6c.2,1.5-1.5,2.8-5.1,3.8-1.4.2.3,1-2.5,0,.5-1.6-1.8-4.2-.5-5.1s2.2.9,1.8-1.2c-8.7-2.6-.2-4.6,0-5.9-.5-12.6.4-25.3,0-38-.1-4.7-4.1-11.8,1.2-14.5,1.3-.4,2.5-.8,3.8-1.3Z"/>
      <path class="st6" d="M226.7,262c4.7,14.7,7.2,29.5,7.6,44.4-2.5,2-6.5,5.5-8.9,7.6-7-4.7-1.5-4.9-.3-11.1,3.1-16.8-3.9-48.4-4.8-67-.4-7.8,0-15.7,0-23.5,2.6,5.4.9,12.3,1.4,18.2.9,10.5,3.5,21,4.9,31.3Z"/>
      <path class="st41" d="M89.6,232.9l1.9,2.2c2.3,18.6,3.8,37.2,4.5,55.8l1.2,1.6c-.2,2.5-5.1,5.4-7.6,5.1-1.2,1.1-2.1.2-2.5-1.3l-1.3-62.2c1.3-.4,2.5-.8,3.8-1.3Z"/>
      <path class="st70" d="M93.4,231.6h1.4c2.2,19.1,4.6,37.7,7.4,55.8,3.4-2.5,4.3-2.8,2.5,1.3-1.3,2.3-5.3,5.3-7.6,3.8l-5.1,1.3c3.9-7.1.5-13.7,0-21s.4-9.3,0-13.9c-.8-8.6-4.7-17.3-2.5-26,1.3-.4,2.5-.8,3.8-1.3Z"/>
      <path class="st19" d="M244.4,192.2h1.6c5.2,31.8,10.9,63.4,17,95l1.7,2.8c1.1.4,1.1.8,0,1.3-2.9.2-3.8.7-6.3,1.3-3.6.5-5.2.2-5.5-3.7-1.8-26.9-4.1-54.1-7.2-81.3-.3-1.5.5-3.6-1.3-5.1-1.1-.2-1.1-.7,0-1.3-.8-3.4-.8-6.4,0-8.9Z"/>
      <path class="st91" d="M191.2,347.1c-2,1.7-3.4,4.1-6.3,6.3l-4.2,1.3c-9.4-1.5-26.5-3.1-19.2,11.1l-.7,1.6c-2.4.9-3.5.8-5.1,1.3-1.1-.4-1.1-.8,0-1.3-22.7-22,11-26.4,28.2-23.6,2.4.4,6.1,1.3,7.3,3.3Z"/>
      <path class="st88" d="M245.7,207.5c5.6,24.8,4.9,49.7,9.9,74.6.8,4.1-2.3,7.9,2.8,10.4-4.1,1-5.4,2-8.9,3.8l-3.8-2.5c9.1-.5,1.1-2.8,1.3-3.2.7-2,2.4-2.7,2.6-6.4s-1.3-11.6-1.3-16.4c-.3-20.3.2-40.2-2.5-60.4Z"/>
      <path class="st58" d="M99.8,229c1-.4,2.6-.4,2.7.3,2.5,17.5,5.8,34.5,10.7,51.5l-2,2.7c1.1.4,1.1.8,0,1.3,0,3.8-3.2,5.9-6.3,3.8.1-1.2-1.7-1.5-2.5-1.3-.7-1.3-.5-2.7.5-4.1-2.9-12.6-5.2-26-6.9-39.1s-1.4-10.9,0-14c1.3-.4,2.5-.9,3.8-1.3Z"/>
      <path class="st40" d="M250.8,199.9c6.2,30.2,13.6,59.6,22.2,88.2l1.9,1.9c1.1.4,1.1.8,0,1.3-2.8-.3-7.3-.2-10.2,0v-1.3l.4-2.6c-9.1-28.2-13.8-59.1-17.9-88.9s.3-2.4,1-3.7c.4-1.1.8-1.1,1.3,0,2.1-.2,2.9,3.8,1.3,5.1Z"/>
      <path class="st7" d="M74.4,239.2c-.4,6.9.5,14,0,20.9-.2,3.3-1.8,6.2-2.1,9.3-.7,6.7,1.8,19.2-5.5,21.8-2.2-1.5-3.7-2.9-5.1-3.8-2.8-2.4-2.3-3.6,1.3-2.5,3.6-13.3,6.1-26.9,7-40.7l1.9-3.7c-1.1-.4-1.1-.8,0-1.3.7-.2,2.1.3,2.5,0Z"/>
      <path class="st85" d="M247,173.2c10.8,33.9,20.1,68.4,29.3,102.8l1.2,10.1c1,1.6,5.1,2.7,2.5,6.3-1.5-.5-3.6-1.1-5.1-1.3v-1.3c-3.8-6.3-6.5-13.4-8-21.2l-16.1-68.9c-.9-2.5-.8-2.9-1.3-5.1-2.6-7.2-4.2-15.2-5.1-22.8,1-2.6,2.5-1,2.5,1.3Z"/>
      <path class="st20" d="M96,230.3c1.5,4.6.4,11.6,1.3,15.6,1.8,8.1,3.6,15.8,5.2,25.5s6.4,12.8-.1,16c-.2,0-1,1.8-2.5,1.3l-6.3-57.1c.6-.2,1.5-.9,2.5-1.3Z"/>
      <path class="st53" d="M68.1,240.5c.7,6.5-3.9,36.5-9.5,40-2.9,1.8-3.5,2-7,.6-1.3-.9-2.5-1.6-3.8-2.5-1.9-1.5-2.2-2.6-1.1-3.4,10.3-6.6,15.3-15.4,12.8-27.6l2.3-3.3v-1.3c1.9-.7,3.8-1.7,6.3-2.5Z"/>
      <path class="st71" d="M226.7,262c2.1,2.1,1.6,5.3,2.6,7.9,1.7,4.6,1.5,5.1,2.8,10.2,1.1,4.2,5.8,9,6.9,12s-1.4,8,.4,10.6c-1.7,1.2-3.5,2.5-5.1,3.8-2.2-.6-2.1-2.1-2.2-3.9-.7-11.3-3.8-28.1-5.4-40.5Z"/>
      <path class="st87" d="M103.6,227.8c2-.5,4,.8,2.5,2.5.8,1.1,0,2-2.5,2.5,2,1.4,2.9,4.6,2.6,9.6,4.4,13,7.7,24.4,10.1,37.4,1,2.7-.7,4-5.1,3.8l-11.4-54.6c1.3-.4,2.3-1,3.8-1.3Z"/>
      <path class="st35" d="M158.2,302.6c1.6,1.8.9,2.5-1.3,1.3-1.5,1.9-4,3-6.3,3.8,0,3.5-2.5,6.3-7.3,8.3-6.4,1.3-13.1,6.3-15.1,12.4l-1.7-.3c-1.1-1.9-1.9-4.1-2.5-5.1h1.3c0-5.4,3.6-9.1,10.8-11.2,4.4-4.6,9.2-8.7,14.4-12.3l2.7.6c2.4-3.7,4.5-4.9,6.3-3.8,2.8.2,2.4,2.4-1.3,6.3Z"/>
      <path class="st0" d="M193.7,345.8c-.9.8-2.2.9-2.5,1.3-10.7-2.5-25.8-4-36.2,1.2-10.8,5.4-3.1,11.4.7,19.1-8.6,1.5-16.1-18.8-5.1-22.8,1-2,3.1-2.3,3.8,0,3.4-2.3,6.6-3.2,9.5-2.5,5-2.1,15.5-2.2,20.3,0,1.7-1.8,10.4.8,9.5,3.8Z"/>
      <path class="st8" d="M61.7,244.3c.4,4.8-.4,18.4-2.1,22.6s-11.1,7.5-11.9,11.7c-1.7-1.2-3.4-2.6-5.1-3.8v-4.5c7.6,2.2,15.9-11.8,16.2-18s-5.8-3.9,2.8-8Z"/>
      <path class="st55" d="M160.7,264.6c1.8-.5,1.8.8,0,3.8.3,1.5.2,2.9-.3,4.3-1.2,3-17.5,18-21.3,21.3s-1.4.1-2.4-.2l-17.8,14.3c-2.1,1.5-3.8,1.8-5,.9-.6-.7-1.8-1.9-2.5-2.5,6.8.2,11.4-6.5,16-10,2.2-1.7,12.6-7.4,12.9-8,.7-1.2-.4-3.8.4-4.7s2.5.1,3.2-.5c3.5-3,14.3-15.3,16.9-18.7Z"/>
      <path class="st64" d="M203.8,335.6c-.9.8-1.6,1.7-2.5,2.5-4.1,3-13.1,9.1-13.3,1.3,0,.7-.2,1.3-.6,1.7-.7.8-18-.5-19.7-1.7v1.3c-4.7,0-9.1,1.6-13.3,3.8-1.3,0-2.5,0-3.8,0-1-.4-1-.8,0-1.3-1.1-.4-1.1-.8,0-1.3,16.6-6,34-9.4,52-10.2l1.3,3.8Z"/>
      <path class="st83" d="M184.8,353.4c-1.7,1.3-3.3,2.6-5.1,3.8-3.1.3-5.9,1.4-8.6,3.2-3.6-2.7-6.3-.8-7.9,5.6-.8.4-1.5.9-2.5,1.3-13.2-17.8,12.5-17.9,24.1-14Z"/>
      <path class="st82" d="M196.2,161.8c1.6,4.1-1,8.8-5.1,10.2-.2-2,.7-4.2-1.6-.9-3.5,5.2-22.8,21.4-28.9,25.1-.7,2.1-4.5,3.7-5.1,1.3-1.5-.5-.6-1.8,2.5-3.8.9-.4,1.7-.8,2.5-1.3,1.3-2.1,3.4-3.3,6.3-3.8,9.2-10,18.7-20.3,28.5-30.6,1.5.2,1.7,1.6.7,4Z"/>
      <path class="st96" d="M71.9,239.2v1.3l-1.9,4.1c-.8,13.5-3.4,27.2-6.9,40.3-.5.8-1.4,1.3-1.3,2.5-3.1-2.1-6.7-4-10.2-6.3,11.3-3.1,11-13.9,13-23.2s2.5-4.1,2.8-5.9c.6-3.2-2.2-8,.7-11.6,1.3-.4,2.6-.8,3.8-1.3Z"/>
      <path class="st15" d="M160.7,196.1c.6,2.9-1.6,2.7-3.1,3.8-9.7,7-19,12.9-29.9,18.2l-17.8,4.7c1-1.2,1.7-1.7,2.5-2.5,5.1-2.5,10.6-4.7,16.5-6.3-.6-2.6,2-3.1,3.8-1.3,1.3-1.5,3.2-2.2,5.1-2.5,2.6-4.2,8.9-8.3,14-10.2-.4-2.4,1.7-3.5,3.8-2.5.5-.3,3.3-.2,5.1-1.3Z"/>
      <path class="st75" d="M201.3,338.2c-2.6,2.4-4.6,5-7.6,7.6-1.9-.3-9-3.8-9.5-3.8h-20.3c-1,0-5.5,2.4-9.5,2.5,1.3-1.4,2.9-3,4.8-3.5s8.1-1.6,8.6-1.6h20.3c.3,0,1.1,1.9,2.5,2l10.8-3.3Z"/>
      <path class="st74" d="M198.8,155.4c3.2,1.9,1.1,7-2.5,6.3-.1-1.9.6-4.3-1.6-1-4.7,7-20.5,22.3-27.5,27.7-1.3.8-2.2.8-2.5,0,6.4-5.8,12.8-14.1,19-20.3l14.8-16.8c1.3.5,1.4,1.9.4,4.1Z"/>
      <path class="st59" d="M165.8,316.6c-8,6.6-18.5,10.1-26.9,16.5-1.9,1.4-4.1,4.7-6,6.3-.6-1-1.7-2.3-2.5-3.8,4.9-2.8,9.8-5.7,14.4-9.1,5.2-3.8,2.8-4.6,11-7.4,2.2-2.4,8.4-5.4,10.2-2.5Z"/>
      <path class="st105" d="M22.4,255.7c2.6,2.8,4.7-.5,6.9-.8,5.1-.7,1.5,10.6,9.6,9l-6.4,3.2c-2.1-1.5-13.1-6.6-13.9-7.6-1.9-2.2,2.3-3.1,3.8-3.8Z"/>
      <path class="st2" d="M111.2,284.9c11.4-7.9,5.7,5.7-2.5,8.9-1.9,2.3-4.6,4.6-5.1,7.6-.8-.1-1.8-1.1-2.5-1.3,2-4,2-6.1,0-6.3-1.1,2.7-4.1,4.4-8.9,5.1-1.3,0-2.5,0-3.8,0-.4-1.3,0-1.7,1.3-1.3,2.8-1.7,5.2-3.6,7.6-5.1,1.8-1.1,5.2-2.4,7.6-3.8s3.1-2.5,6.3-3.8Z"/>
      <path class="st44" d="M163.2,366.1c-2.6-4.2-.4-7.8,3.9-9.5,5.2-2,3.3,2.3,4.4,1.9,2-.8,5.1-4,8.3-1.3-6,4.2-9.9,6-16.5,8.9Z"/>
      <path class="st74" d="M151.8,199.9c-4.4,2.8-9,7.4-14,10.2-1.9.4-3.7,1.1-5.1,2.5-1.1.4-2.6.9-3.8,1.3-3.1,1.8-6.6,2.6-10.1,3.3s-1.8,0-1.4-2c1.4-1,2.2-1.6,3.8-2.5,1.8-2.6,5-5.3,7.6-2.5l8.5-3.9c.8-3.7,7.8-6.1,11.8-6.2.8-2.1,1.9-2.2,2.5,0Z"/>
      <path class="st47" d="M153.1,338.2c.4-.1.9.1,1.3,0,1.6,1,.4,2.3-3.8,3.8-.2.3.2.9,0,1.3-5.8,5-7.1,11.4-3.8,19,1.4,3.3-.3,3.8-2.5,1.3-2.3-4.1-4.2-8.5-6.3-12.7,3.5.9,2.1-2,2.5-2.5,1.1-4.5,8.2-11.4,12.7-10.2Z"/>
      <path class="st5" d="M150.5,344.5c-2.3,5-5.1,6.6-3.8,13.3s5.7,9.6,8.9,9.5v1.3c-.6.2-1.3,1-2.5,1.3-3.8,1.2-7.8-4.3-6.3-7.6-4.5-8.3-6.8-14.9,3.8-19-.2.3.2.9,0,1.3Z"/>
      <path class="st3" d="M235.6,135.1c-6.1,1.4-7.2,5.3-10.2,10.2-.2,2.7-1.2,5.4-3.8,6.3v-1.3l6.3-20.3c5.5,1.8,4.2,2,7.6,5.1Z"/>
      <path class="st27" d="M149.3,199.9c-5.7,1.7-12.8,10.6-20.3,10.2-3-3.3,4.3-5.5,7.2-5.4s-5.4,2.3-4.7-.9c5.5-2.5,10.1-3,15.2-5.1,2.3-.5,3.1-.1,2.5,1.3Z"/>
      <path class="st73" d="M136.6,293.8l-.6,3c-5.8,6.8-12,11.7-18.4,14.7,1.6,2,.9,2.7-1.3,1.3-1.1-1.4-2.4-3.6-2.5-3.8l22.8-15.2Z"/>
      <path class="st65" d="M131.5,203.7c11.4.8,3.3,1.9-.4,4.1s-2,2.2-2.1,2.3c-2.5,1.2-5.9,1.6-7.6,2.5.8-5.1,6.1-7,10.2-8.9Z"/>
      <path class="st11" d="M201.3,150.4c2.3,3,1.3,5-2.5,5.1.2-4.4-.6-2.4-2.3-.4-4.2,4.8-8.8,9-12.9,13.1,5.6-7.5,11.7-14.5,17.8-21.6,1.3-.2,1.3,1.1,0,3.8Z"/>
      <path class="st17" d="M123.9,307.7c-.8,2,1.1,4.6,1.1,5.8s-1.9.5-2,.8c-.5,1.2,2.6,2.2-2.9,3.6-1.1-1.6-2.6-3.6-3.8-5.1.3-.4,1.3-1,1.3-1.3,2.3-1,4.4-2.3,6.3-3.8Z"/>
      <path class="st12" d="M228,130.1c-2.7-.6-2.6,1.2-3.8,2.5-1.7,5.4-3.9,9.7-6.3,12.7.3-1.5-.2-3.5,0-5.1,1.8-3.7,3.3-7.7,5.1-11.4,3.1-.1,3.1.6,5.1,1.3Z"/>
      <path class="st24" d="M205.1,141.5c6.9-4.6,5,1.7,2.5,6.3-.4.4-.8.9-1.3,1.3-1.5.2-3.2.6-5.1,1.3v-3.8c1.2-1.5,2-3,3.8-5.1Z"/>
      <path class="st31" d="M101.1,293.8c.9-.5,7.3-7.1,6.4-1.9s-5,5.1-6.4,8.2c-.4,0-1-1.2-1.3-1.3-1.8-.5-1.4-2.2,1.3-5.1Z"/>
      <path class="st48" d="M153.1,369.9c-.2,0-.8,1.2-2,1.3-4.6.3-5-4.2-6.9-7.7l2.5-1.3c1.9,3.5,2.5,5.2,6.3,7.6Z"/>
      <path class="st39" d="M47.8,248.1l-1.3,3.8c-4.7-3-8.5,3.6-12.7,0,4.9-1.8,10-2.4,14-3.8Z"/>
      <path class="st13" d="M158.2,193.5l-2.5,3.8c-1.3.8-2.5,1.7-3.8,2.5-.8.1-1.9-.2-2.5,0l-2.5-1.3c3.3-1.4,8.5-3.6,11.4-5.1Z"/>
      <path class="st63" d="M129,213.8c-4.4,3.6-11.1,4.5-16.5,6.3,1.9-2,2.4-3.2,5.1-5.1,1.7,2,8.5-.4,11.4-1.3Z"/>
      <path class="st29" d="M207.6,147.8c.2-4.6,3.7-7.2-2.5-6.3,1.9-2.1,3-3.2,5.1-5.1,2.3,3.4.2,8.6-2.5,11.4Z"/>
      <path class="st30" d="M99.8,298.8c-2-.4-5.4,0-7.6,0,2.4-2.6,6-3.4,8.9-5.1l1.2.6-2.5,4.5Z"/>
      <path class="st4" d="M107.4,227.8c2.1.9,3.6,3,5.1,3.8-.4,1.1-.8,1.1-1.3,0-.7,5-4.1,2-5.1-1.3-.4-.2-1.2-2.4-2.5-2.5,1.5-.3.4-1.5,3.8,0Z"/>
      <path class="st92" d="M89.6,297.6c-.5.3-.9.8-1.3,1.3-1.8.1-4.2,1-6.3,1.3,1.1-.8,4.2-3.5,5.1-3.8s2.7,0,2.5,1.3Z"/>
      <path class="st57" d="M153.1,307.7c1.8,1.1.9,3.2-2.5,6.3-3,1.7-7.5,2.8-11,4.9-1.5.9-10.1,6.2-10.5,6.7-.7,1.1,3.8,7.1-1.4,3.6-.2-.4-1-.8-1.3-1.3,1.5-3.3,4.6-5.3,6.7-7.6s0-2.4.8-3.2c2.9-2.6,6.8-1.1,8.6-2.2s5.3-5.5,7.9-7.3c1.2-.9,2.1-.9,2.5,0Z"/>
      <path class="st77" d="M610.7,307.5c-4.3-2.6-6.7-7.2-8.7-11.6l-35.3-93.5c-.8-.6-3,2.4-3.5,3.5-10,19.7-17.4,46.8-26,67.9-3.5,8.5-10.1,30.6-18.2,33.8-9.2,3.7-21.6,2-23.2-9.5-4.1-29.8,0-64.5-2.5-94.9.7-2.8,1.5-7,3.7-9,4.3-3.8,13.3-1.1,13.9-7h-30.5l-46.9,99-45.7-99h-30.5c.7,5.9,9.5,3.2,13.9,7,5.8,5,4.2,30.9,3.9,39.3-.5,15.7-1.4,50.1-5.7,64.1-4,12.7-8.9,7.8-15.9,12-2.1,1.3.1,3.2.7,3.2h43.8v-3.8c-16-.4-18.1-6.4-19.1-20.9-1.7-25.8,2.6-52.3,1.3-78.1l48.8,100.2,50.1-104v94.5c0,.8-3.4,5-4.4,5.7-4.4,3.2-11.7.8-12.1,6.3h83.8c0-5.1-6.5-3.3-9.6-6.3-5.7-5.6,4.5-28.4,6.6-35.7,6.1,1.2,32.4-1.8,35.4,1.3,1.6,1.6,11,28.5,10.9,31.1-.5,8-9.5,2.8-10.3,9.5h39.3c.7-3.9-5.2-3.5-8.1-5.3ZM545.2,265.8c5.1-11.6,8.2-26.4,13.9-37.5.6-1.2.8-3,2.6-3.1l15.2,40.6h-31.7Z"/>
      <path class="st34" d="M942.4,253.1l10-5.8c20.2-15.8,9.3-39.6-14.5-42.4-15.9-1.9-35.1,1.4-51.4,0-.6,3.6.9,2.1,2.8,2.9,5.2,2.1,10,2.3,11.1,9.3-1.7,26.1,2.5,55.5.1,81.2-.9,10.1-4.7,8.9-12.5,11.7-2.1.7-3.4-.7-2.8,2.9h47.6c2.3,0,12.5-2.8,15.3-3.8,31.5-10.8,27.2-51.8-5.8-55.9ZM914.5,210.6c0-4.7,21.7-1.3,26.6,2.6,9.7,7.6,9.1,29.4-2,35.9-7.9,4.6-16.2,1.3-24.6,4v-42.5ZM924.1,308.9c-3.2-.4-9.6-3.4-9.6-6.9v-46.3c6.7-.1,13-.3,19.5,1.4,31.1,8.2,24.7,55.9-9.9,51.8Z"/>
      <path class="st97" d="M248.3,173.2c7.6,19.5,10.4,28.3,14.3,49.8.8,4.4,6.6,16.2,8.3,20.9s9,27.1,9,32.7-1.9,6.4-2.3,9.5c-.3-.4-1.4-.8-1.6-1.6-9.4-37-20-74-28.9-111.4.4-1.1.8-1.1,1.3,0Z"/>
      <path class="st26" d="M248.3,173.2h-1.3l-2.5-1.3c-1.4-.7-1.7-2.4-1.3-3.8-3.6-7.2-6.6-14.3-8.9-21.6,9.4,6.2,10.3,17.4,14,26.6Z"/>
      <path class="st85" d="M234.3,146.6c4.6,7.3,6.4,13.5,8.9,21.6-.4,1.1-.8,1.1-1.3,0-2.9-3.9-5-8.6-6.3-14-2.3-4.5-3.5-10.6-10.2-5.1-1.5-.5,0-3.1,1.3-3.8,2.7-3,5.1-.4,7.6,1.3Z"/>
      <path class="st26" d="M226.7,145.3c-.9,1.1-.8,2.9-1.3,3.8-2.5,4.9-5.2,13.3-6.3,19-.4,1.1-.8,1.1-1.3,0,.2-5.3,1.5-10.8,3.8-16.5,1.2-2.1,2.6-4.2,3.8-6.3h1.3Z"/>
      <path class="st34" d="M870.6,305.3c-2.1-2.1-4.5-7.7-5.9-10.6-13.4-29.4-20.6-63.4-35.9-92.2l-37.6,94.3c-5.3,10.4-5.7,8.3-14.7,13.2-1.5.8-2.1,0-1.6,2.8h35.5c.5-2.9-.1-2-1.6-2.8-3.6-1.9-10.4-1.5-11.1-6.7-.4-3,7.7-31.2,9.1-32.1h35.1c1.2,7.7,11.8,25.6,11.5,32.2-.2,4.6-6.8,5-9.7,6.6-1.5.8-2.1,0-1.6,2.8h39.3c-.5-5.3-7-3.7-10.9-7.5ZM809.1,265.8c4.1-12.4,8.1-26.2,13.4-38.1.6-1.4,0-3.2,2.5-2.5,2.1.6,11.9,35.9,14.6,40.6h-30.5Z"/>
      <path class="st54" d="M167,222.7c-11.5,18.9-26.1,38.3-40.6,55.1s-10.8,15.5-17.8,15.9c2.6-3.1,5.5-6,7.6-9.5-.7-1.4-3.9.2-5.1.6v-1.3c1.7-1.2,3.5-2.5,5.1-3.8-1.9-3-.6-4.1,2.5-2.5-1.1-2.3,1-4.4,6.3-6.3.3-2.2,2.9-4.4,5.1-5.1-1.9-2.9-.8-3.6,2.5-2.5.8-5.3,2.5-7.5,5.1-6.3,0-2.7,1.3-5.2,3.8-7.6-1.1-.4-1.1-.8,0-1.3,1.4.6,3,1.3,4.5.1,5-4,10.2-17.3,17.1-23,1.3-2.8,2.6-3.7,3.8-2.5Z"/>
      <path class="st81" d="M206.4,149.1c-1,6.2-6.5,16.3-10.2,21.6-1.9,3.6-7.8,13.2-6.3,5.1.4-.7.6-2.5,1.3-3.8,1.8-3.4,3.4-6.7,5.1-10.2,1.1-2.3,1.6-4.4,2.5-6.3s1.7-3.7,2.5-5.1,3.1-4.4,4.4-6.3c1.1.6.8,4,.6,5.1Z"/>
      <path class="st78" d="M174.7,210c-2.5,4.4-5,8.4-7.6,12.7-1.2.9-2.6,1.6-3.8,2.5,1.2-5.8,6.1-10.5,8.9-15.2.9-.7,1.7-.8,2.5,0Z"/>
      <path class="st42" d="M196.2,170.7c-1.8,5.8-5.8,9.8-8.9,15.2-1.8,2-2.6,2-2.5,0-1-1.4-.6-3.1,1.3-5.1.3,0,3.3-4.2,3.8-5.1l.6,2.5c1.4-2.7,4.3-5.5,5.7-7.6Z"/>
      <path class="st50" d="M178.5,202.4c-1.3,2.3-2.5,5.4-3.8,7.6l-1.9,1.2-.6-1.2c.8-1.3,1.5-3.3,2.5-5.1-1.6-1.7.3-4.5,2.5-3.8,1.4-1.3,1.9-.6,1.3,1.3Z"/>
      <path class="st43" d="M187.3,185.9c-1.3,2.2-2.9,4.8-3.8,6.3-.4.7-.8.7-1.3,0-2.5-.9.3-6,2.5-6.3h2.5Z"/>
      <path class="st21" d="M183.5,192.2c-1.1,2-2.3,4.9-3.8,7.6-1.4,1.3-1.9.6-1.3-1.3-1.7-1.7,1.3-7.1,3.8-6.3h1.3Z"/>
      <path class="st49" d="M179.7,199.9c-.4.8-.8,1.7-1.3,2.5l-1.3-1.3c-1.7-1.4-.8-3,1.3-2.5l1.3,1.3Z"/>
      <path class="st60" d="M126.4,240.5c1,.5,2.5.6,3.8,1.3l6.3,3.8,5.1,3.8c3.2,3.7-1.5,4.7-3.8,7.6-2.1.5-2.9-.3-3.4-2.1-2.8,5-9.9,2.2-6.8-3-3.9,0-9.8-14.9-3.8-12.7,1.1-1.4,1.8-.4,2.5,1.3Z"/>
      <path class="st100" d="M113.7,232.9c1.5,1,1.9,1.9,1.3,2.5.4,7.8,3,12,7.7,18-.4,4.3,1.5,7.6,5.6,10.2l-4.4,6.1c1.1.4,1.1.8,0,1.3-3.9,5.6-6,3.7-5.6-3.2-2.4-4.8-11.5-31.5-9.6-34.7l2.5-1.4h1.3c.4.2.8,1,1.3,1.3Z"/>
      <path class="st103" d="M120.1,235.4c2.5,1,3.8,2.2,3.8,3.8l-1.2.6c2.8,3.4,2.8,8.3,5,12.1,1.4,3.3-.3,3.8-2.5,1.3-6.7.4-9.7-12.5-10.2-17.8-.7-.8-1.2-1.4-1.3-2.5,1.6.8,4.2,1.5,6.3,2.5Z"/>
      <path class="st16" d="M186.1,180.8c-.6,1.6-.6,3.6-1.3,5.1s-1.9,5-2.5,6.3-2.6,4.1-3.8,6.3-.8,1.7-1.3,2.5-1.7,2.4-2.5,3.8c-4.3-1.3-.4-4.2,1.3-7.6s8.2-16.5,10.2-16.5Z"/>
      <path class="st56" d="M126.4,240.5c-.8-.4-1.8-.8-2.5-1.3-1.4-.9-2.9-2.4-3.8-3.8,1.1.6,6.6.4,6.3,5.1Z"/>
      <path class="st23" d="M136.6,245.5c-2.2-1-5.2-.7-6.3-3.8,3.6,1.7,3.1,1.2,6.3,3.8Z"/>
      <path class="st28" d="M141.7,248.1v1.3c-2.7-.3-3.7-2.7-5.1-3.8,2,.9,3.8,2,5.1,2.5Z"/>
      <path class="st22" d="M200,222.7c2.3,1.4,1.4,4.1-1.3,3.8l-3.8,6.3c-7.7,20.9-16.5,44.3-32.8,59.7-3.2,1.4-6.3,3.9-9.1,7.6-6.2,4.1-19.1,15.6-23.1,17.5s-2.1-1.1-2.3-1c-.3.2-.9,6.4-1.3,7.6l-1.3-1.3c-3.4-11.2,6.7-9.8,10.7-12.6s4.9-6.5,7.1-8.3c2.1-1.8,11.2-7.2,12.4-8.6s.3-4.8,1.5-6.6,9.2-3.9,9.7-4.5,7.8-13,8.5-14.4c2.7-5.5,1.4-9.9,7.7-13.9l11.8-28.8c1.1-1.8,3.8-2.2,5.7-2.6Z"/>
      <path class="st104" d="M170.9,263.3c-1.9,2.7-3.2,6-5.9,8.7-9.2,9.4-19.9,17.2-28.4,27.4s-1.1,3.9-2.5,5.1c-1.9,1.6-7.3,1.6-10.1,3.2-2.6,1.5-2.3,5-6.3,3.8,0,0-2.5-.6-.6-1.3.8,0,2.1.2,2.7-.4,5.8-5.1,11.5-10.6,16.9-16.1,9.1-7,16.5-16.7,24.1-25.4,1.6-4,6-12,10.2-11.4,1.7.6,1.7,2.7,0,6.3Z"/>
      <path class="st93" d="M224.1,132.6c-4.7,15.6-9.7,31.2-14.9,46.6-4.5,13.3-10.1,35.4-17.3,46.8-1.3,2.1-3.3,6.3-3.6,6.6-.5.5-2.7-.2-3.3.4s-3.1,10.8-4.2,12.8-2.4,1.5-3.3,3.3c-3,6-3.7,9.8-6.8,14.2.3-2-.4-4.5,0-6.3-1.1-.5-1.8-1.3-1.3-2.3,4.4-8.2,9.3-16.5,14-24.4,10.2-15.9,16.6-34.2,22.8-52,2.6-9.9,6-19.7,10.2-29.2.4-1.7,1.2-3.4,1.3-3.8,2.8-4.3,2.7-8.5,6.3-12.7Z"/>
      <path class="st35" d="M208.9,210c-2.2,3.7-3.7,8.6-5.1,12.7-1,2-1.6,2.3-2.5,0,2-11,4.9-22,8.9-33,.1-.4-.1-.9,0-1.3,1-2.1,1.8-2.5,2.5-1.3.8,6.6-.2,17.3-3.8,22.8Z"/>
      <path class="st107" d="M221.6,151.6c-.3,5.7-2.5,11-3.8,16.5.2.6.3,1.2.3,1.7-.4,2.7-2.7,15.4-3.3,16.1s-1.2.9-2,1.2l-2.5,1.3c3.4-12.7,6.4-25.9,11.4-38.1v1.3Z"/>
      <path class="st107" d="M201.3,222.7c-.3,1.1-.7,1.1-1.3,0,3-10.7,4.3-23,10.2-33-.4,1.6.3,4.2-.3,6.6-2.1,7.9-8.3,17.1-8.5,26.4Z"/>
      <path class="st109" d="M216.5,187.2c-1.5,1.5-1.9,4-2.2,6.1-3.1,20.8-5.9,55.5-13,73.9-5.5,18.5-18,37.7-34.3,48.2-.5.4-.8.9-1.3,1.3-3.1.6-7.3,1.6-10.2,2.5.9-5.1,8.1-4.4,12-7.7,15.3-13,30.5-43.1,34.7-61.8s4.1-26.6,6.7-39.6c1.4-7.2,2.3-15.7,3.8-22.8s3.5-12.8,5.1-19h1.3c-1.2,5.9-1.8,13-2.5,19Z"/>
      <path class="st38" d="M203.8,222.7c-4.3,13.1-8.5,26.2-13.1,39.6s-.2,10.9-8.5,16.3l-2.8,2c-1.5,3.7-4.7,10.2-8.6,10.7-1.1-.4-1.1-.8,0-1.3l-2.5-2.1c1.9-6.9,7.6-12,12.8-16.5,4.1-14.2,9.6-27.9,16.3-41-1-1-.6-2.3,1.3-3.8.4-1.3.9-2.5,1.3-3.8.4,0,.9,0,1.3,0,.8,0,1.7,0,2.5,0Z"/>
      <path class="st25" d="M182.3,278.5l-2.5,5.1,2.5,1.3c-6.3,1.8-8.6,9.6-13.3,14-3,2.9-15.3,13.4-18.5,15.2l2.5-6.3c.6-1.5,1.9-2.7,3.8-3.8.4-.4.8-.9,1.3-1.3,1.5-3.9,4.4-6.6,8.8-8.2,1.1-3,2.4-4.1,3.9-3.3,1.7-2.4,7.1-11.6,7.6-12.1,1.3-1,3.4-.3,3.8-.6Z"/>
      <path class="st59" d="M201.3,267.1c.4,2.6-.2,4.8-1,7.2-4.5,13.5-16.1,29.8-27.5,38.5-1.9,1.4-2.8,3.1-5.7,2.5,2.6-2.2,17.7-17.3,18.4-19.1,2.2-5.4-1.4-1.3,4.4-8.3,4.3-5.2,9.3-15.2,11.5-20.8Z"/>
      <path class="st98" d="M206.4,178.3c-.1,5.5-2.1,10.7-3.8,15.9-3,9.1-9.5,24.9-14.7,32.2-1.2,1.6-2.5,3-4.3,3.9-.5-.7-.5-1.6,0-2.5,7.7-14.4,13.8-30.6,20.3-45.7.5-1.8,1.4-3,2.5-3.8Z"/>
      <path class="st12" d="M183.5,230.3c-1.8,8.2-10.9,18-12.7,26.6l-10.2,11.4v-3.8c6.6-8.7,17.6-27,22.8-36.8-.1.8.2,1.8,0,2.5Z"/>
      <path class="st12" d="M206.4,178.3c-.6,1.3-2,2.6-2.5,3.8l7.4-23.7,5.3-9.3c-2.2,10.2-6.1,19.7-10.2,29.2Z"/>
      <path class="st51" d="M219.1,198.6c-.9,31.4,3.1,66.5.6,96.6-1,12.2-1.8,9.7-8.2,17.3-1.7,2.1-3.5,6.9-4.2,7.5-1.9,1.9-7.4.4-4.7,6.7l-29.3,4.4c-6.6,3.2-14.2,2.9-20.2,7.1-5.9,1.8-9,5.3-12.7,10.2-2.4-.4.7-3.7,1.3-4.4,14-16.6,43-13.3,60.5-26.9,15.6-12.1,13.6-46.2,14.3-64.5.3-8.6,2.1-16.3,0-25.4l2.6-28.5Z"/>
      <path class="st79" d="M221.6,171.9c1-4.6,4.5-31.6,12.7-17.8,6.3,9.9,9.9,24.7,11.6,36.7,0,.4-.6.9-1.4,1.4.3,2.9-.1,6,0,8.9l-1.3-.3-2.5-16.2-1.4-.9c-1-7.5-2.4-14.9-4.9-22-3.4-5.2-6.4-3.9-8.9,3.8,0,1.6-.5,2.9-1.3,3.8,0,3.6-.5,7-1.3,10.2,1,.6.7,1.5,0,2.5-.4,1.1-.8,1.1-1.3,0v-10.2Z"/>
      <path class="st108" d="M154.4,338.2c13.1-3.6,26.3-4.5,39.6-6.7,3-.5,11.9-6,12.4-.3s-2.4-.7-3.8.6-1.1,3.6-1.3,3.8-3.4-1.5-5.7-1.4c-6.5.2-19.9,1.7-26.5,2.8-6.3,1-12.2,3.8-18.5,4.9.7-1.3,3.2-2.1,3.8-3.8Z"/>
      <path class="st99" d="M224.1,212.5c-.4,1.1-.8,1.1-1.3,0-.6-7.6-1.2-13.8-1.3-21.6s0-5.9,0-8.9h1.3l2.5,27.6-1.2,2.9Z"/>
      <path class="st94" d="M241.9,168.1c3.7,8,5.5,17.9,6.3,26.6,4.8,22.2,6.8,45.4,11.8,67.5,1.9,8.6,5.6,18.8,8.5,27-.3,1.2-2.7.6-3.8.6s-2.5,0-3.8,0l-16.5-97.7c-.7-8.2-6.2-31.3-10.2-38.1h1.3c2.3,4.4,4.9,9.2,6.3,14Z"/>
      <path class="st68" d="M215.3,225.2c-.5,9,.6,18.3,0,27.3-.7,13-3.1,38.9-8.6,49.7s-20.4,20.1-34.1,24.3c-2.7.8-5.4,1.5-8.2,1.4,29.2-14.2,38.9-17.4,45.4-51.7,2.8-14.6,3.9-29.3,4.1-44.1s-.8-5.6,1.3-7Z"/>
      <path class="st1" d="M224.1,215.1c1.9,13.6,4.7,25.1,12.6,36.4,6.4-9.2,7.6-19.6,7-31.6l.6-2.3c2.1,1.3,1.3,4.8,1.3,7,0,7,1,40.2-3.8,43.2-7.3,4.5-13.4-17.4-14.6-22.3-2.9-11.4-3.5-21.5-4.4-33h1.3c2.4.7,2.4,1.8,0,2.5Z"/>
      <path class="st1" d="M244.4,201.1c0,.4,0,.8,0,1.3.1,4.2,0,8.5,0,12.7-.4,1.1-.8,1.1-1.3,0l-1.3-14c-2.2-4.6-2-11.3-1.3-16.5l3.8,16.5Z"/>
      <path class="st61" d="M274.9,290c-2.8.6-2.9-1.4-3.6-3.3-1.6-4.1-3.7-10-4.9-14.2-6.8-23.6-10.6-48.6-15.6-72.6,10.5,28.6,13.4,61.2,24.1,90.1Z"/>
      <path class="st61" d="M244.4,171.9c2.1,7.5,3.4,15.4,5.1,22.8h-1.3c-1.7-8-4-19.1-6.3-26.6h1.3c.4,1.4,1,2.8,1.3,3.8Z"/>
      <path class="st37" d="M63,284.9c.4-11.2,3.8-21.8,5.7-32.9s-2-8.9,3.1-11.5c-2.8,12.2-2,33.8-8.9,44.4Z"/>
      <path class="st95" d="M111.2,231.6c-.3,1.6,0,11.4.2,12,1.8,5.4,2.5,6.7,4.1,13.3,1.3,5.2,8,9.1,4.6,16.5l3.8-2.5c.4-1.1.8-1.1,1.3,0-2.2,2.2-3.8,4.1-6.3,6.3-.8.4-1.5.7-1.8.5-2.3-1.8-10.9-37.3-11.4-42.9-.4.6-1.1,0-2-2,.2-1.2,1.4-2.1,2.5-2.5,1.8,1,2.5,1.9,5.1,1.3Z"/>
      <path class="st101" d="M103.6,232.9c6.6-1.4,3,5.6,3.8,9.3s4.5,10.6,4.9,12c2.1,7.4,1.1,17.5,6.5,23.1-.8.7-1.4,1.6-2.5,2.5-4.4-3.2-3-11.6-3.8-15.6s-2.1-.7-2.4-1.8c-1.4-5.3-7.1-25.8-6.4-29.5Z"/>
      <path class="st35" d="M197.5,230.3c-4.1,14.7-9.3,28-14.1,42.2-.5,1.4-8.2,6.9-10.1,9.3s-3.2,6.9-2.5,8.2l-1.6,1c-1.4,4.3-8.4,8.5-9.8,5.4-2.3,1-4.3,2.4-6.3,3.8,2.8-6.6,9.7-10.8,14-15.9,13.9-16.7,17.7-38.7,27.9-51.4.4-1.7.8-2.9,2.5-2.5Z"/>
      <path class="st45" d="M170.9,290v1.3c-5.1,7-6.6,6.4-12.7,11.4l1.3-6.3c.2-6.1,1.5.1,1.9,0,.8-2.1,5.1-2.2,5.5-2.7,1.3-1.6-2.1-7.7,4-3.6Z"/>
      <path class="st45" d="M156.9,303.9c-.3.3.9,2.9-3.8,3.8s-1.7,0-2.5,0c1.7-1.2,2.8-4.1,6.3-3.8Z"/>
      <path class="st63" d="M137.9,210c-2.1,1.2-2.5,1.5-5.1,2.5.7-2.3,2.9-2.8,5.1-2.5Z"/>
      <path class="st69" d="M115,235.4c3.8,4.4.6,3.5,2.2,8.5s8,8,7.9,9.3l4.3,5.4c6.2-3.7,6.9,0,3.3,4.7-.9,1-1.8,1.7-2.5,2.5-2.2,1.6-4.3,2.9-6.3,3.8l2.5-6.3c-1-.1-3,.4-3.6-.2s-2.5-10-3.5-12.4c-2.8-6.6-4-2.9-4.2-12s-5.8-.3,0-3.4Z"/>
      <path class="st106" d="M127.7,251.9c5,8.7,2.6-1.5,8.9,0l1.3,5.1c-1.9,2.5-2.6,3.6-5.1,6.3l1.3-3.8c-2.4-.9-3.4,2.8-5.1,2s-4.7-4.5-4.9-5.5c-.5-1.6,1.1-2.6,1.1-2.9l2.5-1.3Z"/>
      <path class="st14" d="M130.2,265.8c-1.7,1.8-3.3,3.3-5.1,5.1h-1.3v-1.3l5.7-5.1.6,1.2Z"/>
      <path class="st107" d="M197.5,230.3c-.8.9-1.8,1.6-2.5,2.5-.3-3,1-5.2,3.8-6.3-.4,1.3-.9,2.6-1.3,3.8Z"/>
      <path class="st36" d="M240.6,184.6c.2,5.6,1.1,10.9,1.3,16.5,1.1,5.9,1.9,32.2-1.6,35.6-7.1,6.9-13.2-7.8-13.6-14.1-1.3-1.7-2.1-4.2-2.5-7.6,0-.8,0-1.7,0-2.5-.8-10.1-1.5-20.3-1.3-30.5s0-1.7,0-2.5c.4-1.1.8-1.1,1.3,0,.3,5.3.7,10.8,1.3,16.5,1.1.2,1.1.7,0,1.3-.2,3.2,7.3,26.4,9.1,25.1s4-11.9,4.1-12.8c1-7.6.5-17.4-.4-24.9-2-7.2-3.5-15.4-3.8-22.8,4,8.1,4.5,14.1,6.3,22.8Z"/>
      <path class="st18" d="M225.4,165.6c.7-2.5,1.2-13.3,6.2-10s2,4.8,2.7,6.2c1.7,7.9,3.3,14.7,3.8,22.8,1,4.1,1.4,28-.4,29.9s-6.9.9-8.2-.3l-4.1-16.9c0-.4,0-.8,0-1.3-.9-4.6-1.4-9.6,0-14,4.6-2.2,5.6,5.1,1.3,6.3.3,3.3.8,8.4,4.3,9.6,1.1,8.8,3,6.9,5.9-5.8-2.4-.7-2.4-1.8,0-2.5-.8-3.7-1.3-7.5-1.3-11.4l-2.7-1.3c-1.6-16.2-3.1-16.8-4.4-2l-3,.7c-1-3.1-1-6.5,0-10.2Z"/>
      <path class="st32" d="M225.4,175.7c2.5,2,2.5,4.3,0,6.3,0,4.6-.2,9.4,0,14-2.3-4.2-1.3-11.3-1.3-16.5-.6-3.4-.6-6.7,0-10.2.4-1.9,1-2.7,1.3-3.8v10.2Z"/>
      <path class="st99" d="M224.1,179.6h-1.3c.2-4.4.5-6.2,1.3-10.2,0,3.4,0,6.8,0,10.2Z"/>
      <path class="st99" d="M226.7,222.7c1,5.4,2.1,8.6,5,13s3.6,5.1,3.8,5.4c3.7,4,9.4-22.7,7.7-26h1.3c0,.8,0,1.7,0,2.5-.2,10.1-.2,20.3-1.3,29.7s-3,.9-3.6,2.8,1.5,7.2-3.3,5.6c-.4-.1-3.5-6.1-4.1-7.4-5.3-11-6.7-20.1-7.9-33.2.9,1.6,2.3,6,2.5,7.6Z"/>
      <path class="st46" d="M243.2,215.1c0,7.1.6,15.3-1.2,22.2s-3,5.7-3.3,5.8c-6.7,1.9-5-2.3-6.3-3.7-6.8-7.7-4.1-7.2-5.6-16.6,2,4.5,5.5,16.3,12.4,12.4,4.2-2.4,3-28.1,2.8-34,2.3,3.3,1.3,9.6,1.3,14Z"/>
      <path class="st32" d="M238.1,184.6c2.1,1.3,1.3,4.8,1.3,7,0,7,1.4,27.9-3.1,32.4s-5.1-.7-6.1-2.9c-3.3-7.1-4.2-16.1-4.7-23.8,2,1.9,4.3,14.2,5.2,15.1s5.5.4,6.1,0c1.9-1.5,1.7-23.7,1.4-27.8Z"/>
      <path class="st102" d="M225.4,175.7c1.4-.6,1.3-19.2,6.3-15.2s3.4,14.8,3.8,17.8c0,3.9.4,7.7,1.3,11.4,0,.8,0,1.7,0,2.5-2.2,14.2-10,5.9-10.2-3.8-.4-1.8,1-5.3-1.3-6.3,0-2.1,0-4.2,0-6.3Z"/>
      <path class="st9" d="M226.7,188.4c1.5,7.3,5.4,13.9,10.2,3.8-.2,6.1,1.5,15-6.3,15.2.3-6.9-5.2-12-3.8-19Z"/>
      <path class="st9" d="M236.8,189.7c-2.6-2.6-.8-7.8-1.3-11.4.6,4.2,1.2,6.5,1.3,11.4Z"/>
    </g>
  </g>
  <path class="st34" d="M997.7,215.2c0,7.2-5.7,12.9-13.1,12.9s-13.1-5.7-13.1-12.9,5.8-12.8,13.1-12.8,13.1,5.7,13.1,12.8ZM974.7,215.2c0,5.7,4.2,10.2,10,10.2s9.7-4.5,9.7-10.1-4.1-10.3-9.8-10.3-9.9,4.6-9.9,10.2ZM982.6,221.9h-3v-12.8c1.2-.2,2.8-.4,4.9-.4s3.5.4,4.4.9c.7.5,1.2,1.6,1.2,2.8s-1.1,2.5-2.6,3v.2c1.2.5,1.9,1.4,2.3,3.1.4,1.9.6,2.7.9,3.2h-3.2c-.4-.5-.6-1.6-1-3.1-.2-1.4-1-2-2.6-2h-1.4v5.1ZM982.7,214.6h1.4c1.6,0,3-.5,3-1.9s-.9-1.9-2.7-1.9-1.3,0-1.6.2v3.7Z"/>
</svg>