<?xml version="1.0" encoding="UTF-8"?>
<svg id="Layer_1" xmlns="http://www.w3.org/2000/svg" version="1.1" viewBox="0 0 1196.9 500">
  <!-- Generator: Adobe Illustrator 29.0.0, SVG Export Plug-In . SVG Version: 2.1.0 Build 186)  -->
  <defs>
    <style>
      .st0 {
        fill: #fff;
      }

      .st1 {
        fill: #ea1f27;
      }

      .st2 {
        fill: #908c8d;
      }
    </style>
  </defs>
  <g id="cMSGpP">
    <g>
      <path class="st1" d="M104.9,315.8c-4.3,23.1-12.7,46.4-27.7,64.8-2,2.4-4.5,4.5-6.1,7.1h-.4l-22.4-23.3c11.9-12.2,19.5-28.5,23.3-44.9,2.4-10.3,3.3-20.6,3.5-31.2l-.3-.9,29.1-36.6c.5-.6,1.3-.2,1.8.4v64.2s-.8.5-.8.5Z"/>
      <path class="st0" d="M1190.8,222.4c-2.1-18.9-31.7-22.5-44.7-12.4-13.4,10.6-14.9,35.5-4.1,48.3,13.6,16.1,46.5,10.8,48.8-12,.2-.4.3-.8.4-1.2v-1.6h-13c-1.5,9.2-7.4,14.5-16.9,13.4-15.1-1.8-16.4-27.8-8.4-37.1,7.1-8.3,24-5.9,25.2,6.2h13s0-2.4,0-2.4c-.1-.4-.3-.9-.4-1.2Z"/>
      <path class="st0" d="M1190.8,322.7c.3.1.3.6,0,.8.2.1.3.4.4.8v27.6h-8.1v-25.8c0-1.1-1.6-4-2.6-4.7-4.3-2.9-11-.4-12.7,4.4s-.9,3.4-.9,4v22.1h-8.1v-36.9h7.7l.2,5.3c5.2-9.2,22.2-8.9,24.2,2.4Z"/>
      <path class="st2" d="M6.1,315.8h-.4v-132h.4c.3,0,.8.2.8.4.3,43.2.3,87.9,0,131.1l-.8.5Z"/>
      <path class="st0" d="M1191.2,246.3h-.4c0-.4-.1-1,.4-1.2v1.2Z"/>
      <path class="st0" d="M1191.2,223.6c-.6-.2-.4-.8-.4-1.2h.4v1.2Z"/>
      <path class="st0" d="M1191.2,323.5c-.1.4-.3.3-.4,0,0-.3,0-.6,0-.8h.4v.8Z"/>
      <path class="st0" d="M1191.2,324.3c-.4-.1-.4-.5-.4-.8h.4v.8Z"/>
      <path d="M51.2,198.4h.5c8,9.8,15.8,20.1,23.4,30.7,3.5-5.6,7.6-11.8,12.6-16.1,7.6-9.8,15.4-19.4,23-29.2h32.9s.6.6.6.6v131.4h-39.4v-65s-29.7,37.4-29.7,37.4l-29.7-37.4v65H6.1v-132h33.5c3.8,5,7.9,9.7,11.7,14.6Z"/>
      <path class="st0" d="M216.9,183l23.2,65,22.8-65h19.7v82.8h-13.8v-63.3l-23.4,63.4c-1.9-.4-11,.6-11.8-.4l-23-62.9v63.3h-13.8v-82.2s.6-.6.6-.6h19.5Z"/>
      <path class="st1" d="M87.8,213.1c-4.3,5.5-8.3,11.2-12.8,16.6-7.7-10.1-15.6-20.2-23.4-30.2-.3-.4-.3-.9-.4-1-1.5-12.4-2.1-25.1.1-37.4,3.3-18.6,12.6-35,25.5-48.6l22.7,22.9c-5.5,6.2-10.5,12.7-13.5,20.5-7.3,18.6-4,38.7,1.8,57.2Z"/>
      <path class="st0" d="M761.5,207.8c-.4-13.4-15-17.2-25.8-13.4-8.3,2.9-10,13.1-2.5,18s22.5,5.8,30.8,9.1c21.9,8.5,17.8,37.8-4.6,44.6s-48.9-1.7-48.7-27.7h14.6c-1,16.1,18.3,21.1,30.6,16.1s11.1-16,2.3-20.4c-13.6-6.9-42.1-4.6-44.3-25.2-3.8-36.4,62.1-36.5,62-1.8,0,.3-.1.8-.4.8h-14Z"/>
      <path class="st0" d="M402.9,183v30.9c6.4-10.4,24-12.6,33.1-4.9,2.8,2.3,6.3,8.4,6.3,12v44.9h-13.4v-41.2c0-1-1.4-4.6-2.1-5.6-4.3-6.3-15.7-4.8-20.3.8s-3.7,6.7-3.7,8.9v37.2h-13.4v-82.2s.6-.6.6-.6h12.8Z"/>
      <path class="st0" d="M627.7,214.7c6.7-10.3,21.2-13.4,31.7-7.1,3.6,2.2,8.2,8.3,8.2,12.6v45.7h-13v-39.2c0-1-.9-4.5-1.3-5.6-3.1-8-15-7.6-20.4-2.3-1.3,1.3-4.3,6.6-4.3,8.3v38.8h-13.4v-59.7h12.6v8.5Z"/>
      <path class="st0" d="M994,265.8h-13.4v-41.6c0-.7-1.6-4.4-2.1-5.2-3.3-4.9-11.7-5-16.5-2.4-3.9,2.1-7.4,8.1-7.4,12.5v36.7h-13v-59.7h12.6v8.5l4.7-5.3c8-7.1,24.3-6.8,31.1,1.8,1.6,2,4.1,7.3,4.1,9.7v44.9Z"/>
      <path class="st0" d="M842.8,226h-12.8c-1.1-2.3-1.6-4.8-3.3-6.9-4.6-5.4-14.9-5.4-20.3-1.2-8.3,6.5-8.9,25.2-2.8,33.3,6,8,18.8,8,23.8-.9,1.3-2.3,1.5-4.5,2.6-6.8h12.8c-2.1,17-14.4,25.3-31.1,23.9-33.1-2.7-33.9-56.1-3.5-62.3,15.4-3.2,33.6,3.3,34.6,20.9Z"/>
      <path class="st0" d="M380.5,226h-12.8c-1.2-2.8-1.9-5.8-4.3-7.9-4.2-3.9-12.8-4-17.6-1.3-9.6,5.4-10.3,23-6,31.9s19.6,11.7,25.3,1.6c1.3-2.3,1.6-4.5,2.6-6.8h12.8c-1.9,18.5-17.7,27.2-35.2,23.2-29.2-6.6-28.2-55.6.7-61.6,15.4-3.2,33.7,3.3,34.6,20.9Z"/>
      <path class="st0" d="M1106.2,194.4c-3.3-.4-8.1-1.7-11,.6s-1.6,2.1-1.6,2.4v8.7h11v9.7h-11v49.9h-13.4v-49.9h-9.8v-9.7h9.8v-9.1c0-3.1,2.6-8.8,5.1-10.8,4.4-3.5,12.9-3.4,18.2-2.8.5,0,2.7.5,2.7,1v9.9Z"/>
      <path class="st0" d="M1024.5,187.9v17.7s.6.6.6.6h11.6v9.7h-12.2v34.7c0,.2.7,2.8.9,3.2,1.6,3.4,8.3,2.1,11.3,1.9v10.2c-5.1.5-9.7,1.2-14.7.3-9.6-1.7-10.5-7.7-10.9-16.3s.5-22.7,0-33.9h-9.8v-9.7h9.8v-17.7s.6-.6.6-.6h12.8Z"/>
      <path class="st0" d="M848.9,317h-8.7c-2.2-5.4-5.1-9.6-11.4-10.1-15.7-1.5-20.1,17-15.6,28.9,5.7,14.9,25.9,12.7,26.7-3.4h8.9c-.9,16.4-16.3,24.7-31.3,18.9-19.3-7.5-20.2-39.4-2.3-49,12.8-6.9,32.1-1.3,33.6,14.7Z"/>
      <rect class="st0" x="454.1" y="206.1" width="13.4" height="59.7"/>
      <rect class="st0" x="851.7" y="206.1" width="13.4" height="59.7"/>
      <rect class="st0" x="1046.9" y="206.1" width="13.4" height="59.7"/>
      <rect class="st0" x="1113.1" y="206.1" width="13.4" height="59.7"/>
      <rect class="st0" x="299.2" y="206.1" width="13.4" height="59.7"/>
      <path class="st0" d="M1085.9,315h7.3v6.1h-7.3v22.5c0,2.4,5.6,2.6,7.3,1.8v6.5c-4.2.4-12,1.3-14.6-3.1s-1.3-3.7-1.3-4.4v-23.3h-6.1v-6.1h6.1v-11.4h7.9s.6.6.6.6v10.8Z"/>
      <path class="st0" d="M1017.6,321.5c.8-.5.9-1.8,1.6-2.6,2-2.5,5.2-4.7,8.4-5s3.6-.3,4,.3c.6.9-.1,6.2.2,7.7-5.4-1.1-10.4.6-12.5,6s-1.3,5-1.3,6.4v17.7h-8.1v-36.9h7.7v6.5Z"/>
      <path class="st0" d="M920,313.7v8.1c-4.8-1-9.6.4-11.9,5s-1.6,4.3-1.6,4.9v20.1h-8.1v-36.9h7.7v6.1l2.4-3.5c3.1-3.1,7-4.3,11.4-3.8Z"/>
      <rect class="st0" x="1099.3" y="315" width="8.1" height="36.9"/>
      <path class="st0" d="M865.1,195.6h-13.4v-12.6h12.8s.6.6.6.6v12Z"/>
      <path class="st0" d="M1126.6,195.6h-13.4v-12.6h12.8s.6.6.6.6v12Z"/>
      <path class="st0" d="M312.6,195.6h-13.4v-12s.6-.6.6-.6h12.2s.6.6.6.6v12Z"/>
      <path class="st0" d="M467.5,195.6h-13.4v-12s.6-.6.6-.6h12.2s.6.6.6.6v12Z"/>
      <path class="st0" d="M1060.3,195.6h-13.4v-12s.6-.6.6-.6h12.2s.6.6.6.6v12Z"/>
      <rect class="st0" x="1099.3" y="300.8" width="8.1" height="7.7"/>
      <path class="st0" d="M134.1,194v111.7h-18.5s-.6-.6-.6-.6v-83.4l-40,49.9-39.6-50.3v84.5h-19.1v-111.7h18.9l39.8,52,40.3-52h18.9Z"/>
      <path class="st0" d="M524,206.1v8.1l-2-3c-7.6-9.2-23.4-8.5-32.3-1.4-17.9,14.4-13.6,53.6,12.2,56,9.7.9,16.5-2.2,22.1-10.1v11.6c0,2.2-2,6.9-3.6,8.5-5.8,6-24.7,6.1-26-4.7h-13.4c1.9,20.1,31.1,22.3,45.1,14.4,8-4.5,10.7-12.4,11.4-21.1v-58.3s-13.4,0-13.4,0ZM503.5,254.8c-15.8-4.2-14.7-37.5,1.3-39.7,27.8-3.7,24.3,46.5-1.3,39.7Z"/>
      <path class="st0" d="M600.9,253.5c-1-10.7,1.2-23.3,0-34-1.9-16.2-26.4-17.2-38.2-12.8-7.8,2.9-12.9,9.2-12.9,17.8h12.8c1.2-3.1,1.9-6,5.2-7.8,5-2.7,19.2-2.8,20.5,4.4,1.2,6.4-2.7,7.9-8,8.9-10.7,2.1-28.6.9-32.2,14.2-6.7,24.7,26.2,29.3,40.4,16.4,1.9,8.4,12.7,8.1,18.9,5.1v-8.7c-3.8-.2-6.1,1.3-6.5-3.4ZM587.5,248.2c0,2.7-4.9,6.4-7.2,7.4-6.7,2.8-21.1,2-19.5-8.1,1.7-10.8,19.7-6.9,26.7-11.3v12Z"/>
      <path class="st0" d="M931.4,239.4c2.6-21.7-14.5-40.1-36.9-33.8-27.4,7.8-27.7,54.9,1.2,61.2,15.3,3.3,31.3-3.5,34.9-19.6h-12.4c-3.3,8.2-9.9,10.9-18.5,9.6-8.1-1.3-12.8-9.6-12.2-17.3h43.9ZM918,230.5h-30.5c.7-20.6,29.6-20.8,30.5,0Z"/>
      <path class="st0" d="M935.3,315.8l-3.5,3.6v-4.5h-8.1v50.1s.6.6.6.6h7.3s.6-.6.6-.6v-17.7c7.1,8.3,21.1,7.1,26.1-3,8-16.2-3.9-37.7-23-28.6ZM944.2,346.2c-15.7,2.2-16.3-24.3-3.5-25.8,14.6-1.8,15.1,24.2,3.5,25.8Z"/>
      <path class="st0" d="M1070.3,346.6c-.7-.9-3.4.5-3.9-1.8-.5-6.7.6-14.1,0-20.7-1.3-15-32.6-13.6-31.7,2.2h8.1c.1,0,.3-2,.7-2.7,2.5-4.7,14.2-4.6,15,1,.5,3.2-1.7,4.2-4.3,4.9-8.4,2-22,.4-21.2,13.2.7,12.1,18.2,12.4,25.4,6,1.2,1.6,1.7,3.4,3.8,3.9,1.3.3,7.5.2,8.1-.7.2-.3.1-4.9-.1-5.3ZM1057.8,341.6c0,.7-2.7,3-3.4,3.5-3.5,2-12.5,2-12.8-3-.6-8.3,11.4-5.8,16.3-8.3v7.9Z"/>
      <path class="st0" d="M1130.5,313.9c-21.8,2.4-21,36.5-.9,38.8,11,1.3,20-3.6,22-14.9,2.5-14-6.3-25.6-21.1-23.9ZM1130.9,346.1c-10.6-1.8-11.3-24.1.8-25.8,15.9-2.2,16.4,28.7-.8,25.8Z"/>
      <path class="st0" d="M986.1,313.7c-5.2-.4-11.4,1.3-15.1,5-10.1,10.1-5.8,32.4,10.2,34,28.6,2.9,28.8-37.4,4.9-39ZM982.1,346.1c-10.7-1.8-11.2-24.1.8-25.8,15.9-2.2,16.4,28.7-.8,25.8Z"/>
      <path class="st0" d="M891.5,330.2c-1.1-11.3-10.2-17.5-21.2-16.4-22.4,2.4-21.1,37.2-.1,38.9,14.5,1.2,22.7-8.3,21.3-22.5ZM870.4,346c-11-2.1-10.8-24.2,1.1-25.7,15.9-1.9,16.1,29-1.1,25.7Z"/>
    </g>
  </g>
</svg>