<?xml version="1.0" encoding="UTF-8"?>
<svg id="Layer_1" xmlns="http://www.w3.org/2000/svg" version="1.1" viewBox="0 0 1177.7 500">
  <!-- Generator: Adobe Illustrator 29.0.0, SVG Export Plug-In . SVG Version: 2.1.0 Build 186)  -->
  <defs>
    <style>
      .st0 {
        fill: #e85f24;
      }

      .st1 {
        fill: #e85f25;
      }
    </style>
  </defs>
  <g id="uW5Lgx">
    <g>
      <polygon class="st0" points="63.9 101.5 132.4 260 201.3 101.5 221.8 101.5 122.9 338.3 111 338.6 50 194.2 50 338.7 0 338.7 0 101.5 63.9 101.5"/>
      <polygon class="st0" points="272.8 101.5 272.8 338.7 221.8 338.7 221.8 193.2 162.9 338.7 141.9 338.7 238.8 101.5 272.8 101.5"/>
      <path class="st0" d="M509.6,161.3v131.1c0,2.9,5.9,10.7,8.5,12.5s8.5,4,10,4h28.5v-147.6h38v177.5h-86.4c-13.7,0-35.5-23-35.5-36.4v-141.1h37Z"/>
      <path class="st0" d="M406.7,97.5v60.8h44v33.9h-44v100.2c0,2.9,9.2,13.5,12.5,13.5h34.5v32.9h-50.5c-18,0-35.5-31.4-35.5-47.4V97.5h39Z"/>
      <path class="st0" d="M658.5,97.5v59.3c0,.1,1.4,1.5,1.5,1.5h44.5v33.9h-46v96.2c0,5.2,8.9,17.4,14.5,17.4h34.5v32.9h-52.5c-15.6,0-34.5-29.3-34.5-43.4V97.5h38Z"/>
      <polygon class="st0" points="901.2 158.3 935.2 257 976.2 158.3 996.2 158.3 898.3 402.5 880.3 402.5 914.8 311.3 859.3 158.3 901.2 158.3"/>
      <rect class="st0" x="300.7" y="162.3" width="39" height="176.5"/>
      <polygon class="st0" points="1032.1 158.3 934.2 402.5 915.2 402.5 1012.7 158.3 1032.1 158.3"/>
      <rect class="st1" x="300.7" y="101.5" width="39" height="40.9"/>
      <path class="st0" d="M858.2,226.7c-4.7-44.3-26-76.8-75-73.1-46.9,3.5-62.5,42.2-64.8,83.9-3.1,57.1,14,114.4,83.2,104.9,54.7-7.5,61.4-71.2,56.6-115.7ZM814.8,289.9c-11,24-39.6,25.4-51.3,1.4-10.5-21.5-13.1-94.6,19.6-99.8,45.1-7.1,43.7,72.5,31.7,98.5Z"/>
      <path class="st0" d="M1175.9,225.7c-6.3-49-32.4-72.9-83-67.2-55.5,6.3-60.3,79.9-53.6,122.7,7.1,45.1,33.7,70.4,81.2,63.3,55.5-8.2,61.2-73.8,55.4-118.9ZM1136,284.3c-12.3,39.4-52.8,33.7-60.4-6.4-4.4-23-6.4-78.3,25.3-82.5,43.5-5.8,43.7,61.4,35.2,88.9Z"/>
    </g>
  </g>
</svg>