<?xml version="1.0" encoding="UTF-8"?>
<svg id="Layer_1" xmlns="http://www.w3.org/2000/svg" version="1.1" viewBox="0 0 1876.2 500">
  <!-- Generator: Adobe Illustrator 29.0.0, SVG Export Plug-In . SVG Version: 2.1.0 Build 186)  -->
  <defs>
    <style>
      .st0 {
        fill: #fff;
      }
    </style>
  </defs>
  <g id="nchNIQ">
    <g>
      <path class="st0" d="M305.5,101.8v296.9l-2.4,2.4H8.7l-2.4-2.4V101.8h299.3ZM135.9,285.8v-62.4h-28.8v14.4s11.2,0,11.2,0v23.2c0,.5-4,7.2-4.9,7.9-6.6,5.6-15.3,2.1-18.8-5.1,1.7-21.3-3.4-49.6-.2-70s12.9-13.1,20-7.3c5.9,4.8,3.6,14.2,3.9,20.9h17.6c.8-14.8,1-30.7-15.1-36.9s-43.2,1.4-45.7,26.5c-1.4,13.8-1.7,64.8,2.4,76,6.2,16.9,33.1,21.8,40,4.8l.8,8h17.6ZM183.9,170.6h-27.2v115.2h17.6v-84.8l14.7,82.1,2.3,2.5,12.4.3,15.4-84.9v84.8h17.6v-115.2h-27.2c-4.4,23.6-5.4,51.4-11.2,74.4-.6,2.2,0,5-3.2,5.6l-11.2-80ZM236.7,303.4H75.1v27.2h161.6v-27.2Z"/>
      <path class="st0" d="M635.2,401l32.2-134.3c25.3,1.1,52.5-2,77.5-.2,10.8.8,24.6,2.7,32,11.2s3.8,12.3,8.7,17.7l7.2-28.8h108l-7.9,32.9-33,2.3-24,99.3h-40l-1.8-3.3,23.4-97.5h-33.6l-1.6-3.2c.3,22-12.1,48.6-36.8,49.6l14.4,54.4h-44l-16.2-73.5,1.8-3.3h28.8c4.1,0,16.3-23.5,0-25.7-3.9-.5-24.1-.6-25.7,1.6l-25.6,100.9h-44Z"/>
      <path class="st0" d="M1246.5,101.8l1.6,61.6,2.4,4,33.6-65.6h60l-22.4,132.8h-43.2l13.6-81.6-40,81.6h-40.8l-6.4-81.6c-4.1,4.1-5.8,13.1-7.5,18.9-6,20.6-10.4,41.8-14.9,62.8h-40l36.8-132.8h67.2Z"/>
      <path class="st0" d="M1480.1,234.6l35.4-132.7h52.6c0,0,19.3,71.9,19.3,71.9,2.4-.2,2.5-2.4,3.1-4.1,7.6-20.5,9.4-46.6,14.5-67.9h38.4l-29,132.6-52.7-.5-22.3-72.9c-3,.7-3.2,4-4,6.4-7.2,20.8-10.1,45.7-15.2,67.2h-40Z"/>
      <path class="st0" d="M954.9,99c34.3-.3,64.1,8.2,64.2,48.2,0,38.9-22,85.1-64.7,89-51.4,4.6-90.1-4.4-80.3-64.3,7.9-48,30.6-72.5,80.8-72.9ZM946.9,129.4c-14.8,1.8-19.8,10.9-24.1,24-8,24.4-13.5,63.3,25.8,53,19.3-5.1,26.6-45.1,24.2-62s-14.3-16.4-25.8-14.9Z"/>
      <path class="st0" d="M1009.7,234.6c11.2-43.9,25.8-87.4,30.4-132.8,28.4,1.7,59.2-2.2,87.3,0,24.3,1.9,32.5,15.1,28.8,38.6-3,18.8-15,40.2-36.1,39.9l14.4,54.4h-46.4l-14.1-73.2,2.1-3.6h28.8c3.9,0,11.3-19.1,5-24.2l-31.3-1.4-24.9,102.3h-44Z"/>
      <path class="st0" d="M619.2,234.6c14.3-43.2,25.8-87.6,32-132.8,27.9,1.6,58.1-2.1,85.7,0s34.2,13.3,30.4,37c-3.1,19.4-14,41.1-36.1,41.5l14.4,54.4h-46.4l-14.3-73c-.3-1.3,1.6-3.8,2.3-3.8h28.8c20.9-27.9-3.7-27.2-26.3-25.4l-24.2,102.3h-46.4Z"/>
      <path class="st0" d="M617.6,266.6l14.3,130.6c.4,1.3-1.6,3.8-2.3,3.8h-45.6l-1.6-35.2h-33.6c.7-4.8,15-28,17.6-29.6s9-.4,12.8-.8c-.4-8.9-.6-19.2-1.7-27.9s-.7-6-3-5.7l-53.6,99.2h-44c3.5-12,11.9-24.1,18.5-35.1,20.3-33.7,42.8-66.2,63.9-99.4h58.4Z"/>
      <path class="st0" d="M1323.3,234.6c22.4-46.5,55.4-87.3,80.3-132.6h60.4c0,0,14.6,132.6,14.6,132.6h-48l-1.6-35.2h-33.6c2.5-6.7,15.5-29.2,21.6-30.4s5.9.2,8.8,0c1.1-1-1.1-25.8-1.7-29.5s-1-3.8-3.1-4.1l-53.6,99.2h-44Z"/>
      <path class="st0" d="M435.2,356.2c-1.5-1.4,15-27.5,16.4-28.4,6.3-4.1,14.7,1.3,20-12.8,9.9-25.9-13.1-19.1-30-19.6l-23.3,105.5h-40c-1.1,0-3.2-3.5-2.1-5.2l28.4-128.5c26.4.4,56.4-3,82.5-.7,34.6,3.1,37,25.9,25.6,54.4-6,15.1-17,30.4-34,33.2s-14.6,2-17.2,2h-26.4Z"/>
      <path class="st0" d="M435.2,189.8c1.6-4,14.9-27.7,16.3-28.5,3-1.7,10.2.6,15.6-4.4s10.8-23.1,1.6-27.1c-3.5-1.5-24.5-1.8-26.4.7l-21.6,104.1h-44.8l28.7-132.1c28.6,1,62.5-3.7,90.5-.7,43.1,4.6,18.7,77.1-11.9,85.7-1.4.4-11.4,2.3-12.1,2.3h-36Z"/>
      <path class="st0" d="M993.7,266.6l-6.6,30.2c-3.1,2-37.5-1.2-45.4.3s-4.4,1.7-5.4,4.3c-3.5,11.8,17.9,15.5,25.9,19.9,19,10.6,26.9,24.1,19.4,46.1-5.9,17.5-25.9,33.7-44.8,33.7h-68l6.6-28.6c2.2-1.4,38.3.4,45.4-.2s22.1-5.1,15.3-16.9c-5.2-8.9-30.6-12-39.2-26.4-11-18.6,3.2-49.1,22.5-57.3,2.7-1.1,15.4-5,17.4-5h56.8Z"/>
      <polygon class="st0" points="1870.6 101.8 1864.1 132 1806.8 132.3 1790.6 202.6 1846.6 202.6 1840.2 234.6 1741 234.6 1768.2 101.8 1870.6 101.8"/>
      <path class="st0" d="M635.2,101.8l-6.6,30.2-56.6,1.8-16.8,68.8h57.6l-8.8,32h-98.4c10.9-43.8,22.2-87.8,27.2-132.8h102.4Z"/>
      <path class="st0" d="M1755.4,101.8l-6.3,24.9c-20.5,2.6-45-5.4-57,16.6-5.9,10.8-14,43.8-7.8,54.4s12.5,8.1,17.5,8.1h31.2l-6.3,28.1c-28.1.7-74.3,7.9-86.8-25.4-9.9-26.4,4.3-76.3,25.9-94.7,4.1-3.5,18.4-12,23.2-12h66.4Z"/>
      <path class="st0" d="M884.8,101.8l-6.6,30.2-54,.4-25,102.2h-42.4c11-43.7,22.6-87.8,27.2-132.8h100.8Z"/>
      <path class="st0" d="M1132.9,333.8c4.9-21,9.6-42.1,14.4-63.2l2.4-4h76c-5,22.4-10.8,44.8-16,67.2,25.6,0,51.2,0,76.8,0,4.9-21,9.8-42.1,14.4-63.2l2.4-4h76c-4.9,22.5-10.8,44.8-16,67.2,25.6,0,51.2,0,76.8,0,4.9-21,9.8-42.1,14.4-63.2l2.4-4h76c-4.8,22.5-10.8,44.8-16,67.2,25.6,0,51.2,0,76.8,0,4.9-21,10-42.1,14.4-63.2l2.4-4h76c-4.8,22.5-10.8,44.8-16,67.2,25.6,0,51.2.1,76.8,0,4.9-21,10-42.1,14.4-63.2l2.4-4h76l-15.9,66.5c-25.6,1.4-51.3.6-76.9.7-5.2,22.4-8.7,45.9-16.8,67.2h-73.6l-1.8-3.3c5.6-21.2,10.4-42.6,15.4-63.9-25.6,0-51.2,0-76.8,0-5.2,22.3-8.9,45.9-16.8,67.2h-73.6l-1.8-3.3c5.6-21.2,10.4-42.6,15.4-63.9-25.6,0-51.2,0-76.8,0-5.2,22.3-8.9,45.9-16.8,67.2h-73.6l-1.8-3.3c5.4-21.2,10.4-42.6,15.4-63.9-25.6,0-51.2,0-76.8,0-5.2,22.4-9,45.9-16.8,67.2h-73.6l-1.8-3.3c5.4-21.2,10.4-42.6,15.4-63.9-25.6,0-51.2,0-76.8,0-5.2,22.4-9.2,45.8-16.8,67.2h-73.6l-1.8-3.3,15.6-63.7c25.5-.4,51.1-.1,76.6-.2Z"/>
      <polygon class="st0" points="1853 149.8 1846.6 180.2 1800.2 180.2 1816.2 149.8 1853 149.8"/>
      <path class="st0" d="M870.4,149.8c-3.6,9.7-3.6,21.7-8.8,30.4h-44l16.8-30.4h36Z"/>
      <path class="st0" d="M619.2,149.8c-4.4,9.6-3.5,21.7-8.8,30.4h-44l16.8-30.4h36Z"/>
    </g>
  </g>
</svg>