<?xml version="1.0" encoding="UTF-8"?>
<svg id="Layer_1" xmlns="http://www.w3.org/2000/svg" version="1.1" viewBox="0 0 1471.6 500">
  <!-- Generator: Adobe Illustrator 29.0.0, SVG Export Plug-In . SVG Version: 2.1.0 Build 186)  -->
  <defs>
    <style>
      .st0 {
        fill: #14394f;
      }

      .st1 {
        fill: #fbac21;
      }
    </style>
  </defs>
  <g id="xS8CUb">
    <g>
      <path class="st0" d="M92.7,334.8c-2.7-4.1-.3-16.4-3.4-18.5-11.3-7.7-13.8,10.3-19,11.3-1.3.2-13.6-6.7-16.1-8.2-1.1-.6-3.5,0-2.2-3s25.8-26.6,27.7-27c2.4-.5,7.4,3.6,10.9,4.5,23.9,6,48.8-5.3,56.2-29.3,1.1-3.4,5.8-22.6,0-22.8-2.9-.1-37,24.5-42.6,28l-2.6-2.6,69.9-67.6c1,0,9.8,16.5,9.5,18.2-1.1,5.5-19.4,6.9-10.6,19.4,2,2.8,16.7-.2,17.9,1s.2,21.6-.8,22.9c-4,5.7-17.1-4.9-18.5,8-1.2,10.2,9.5,7.3,12,11.5,2.7,4.5-8.5,15.3-8.7,20.7-8,1-14.1-11.4-20.4-3.6-7.1,8.8,5.7,16.8,2.6,21s-14.9,8-15.8,8.2c-6.8,1.6-6.8-9.6-11.8-11.3-14.4-4.9-11.3,9.8-11.2,19h-23Z"/>
      <path class="st1" d="M127.7,185.2c1.5-.8,4.6-10.9,8.6-11.7s13,9.1,18.4,8.6c.7,2.7-.7,2.9-1.7,4.4-1.5,2.2-21.6,22.1-23.1,22.8-5.5,2.5-16.7-4-23.9-4.4-17.6-1-37.1,10.2-44.2,26.4-1.9,4.3-8.3,26.8-1.7,28.1s30.6-20.9,36.3-23.6,5.9-2.8,5.2,1.7l-67.3,64.1c.6-5.3-9.4-14.6-8.7-18.2,1.2-6.2,16.2-4.4,11.9-17.5-2-6-15.5-.3-18.5-4.5-1.2-1.7-1.3-20.2-.6-21,2.3-2.7,17.4.2,19-4.8,4.3-13.1-10.7-11.3-11.9-17.5s7.9-17.6,8.7-18.1c3.4-2.4,13.7,8.1,17.6,6.2,14.5-7.2-3.4-18.8.2-23.7s17.3-8.9,18.2-8.7c6.3,1.2,4.5,16.1,17.7,11.8,6.9-2.2-1.8-17.4,7.3-19.1,30.1-5.5,16.1,10.7,21.1,17.7,1.5,2.1,9.1,2.5,11.3,1.3Z"/>
      <path class="st0" d="M261.8,217.2c17.8,2.9,21.8,18,18.2,33.9-1.3,5.7-8,8.3-8.5,12.7-.6,5.9,12.2,38.1,10.6,39.5-3.5-.6-20.2.9-21.2,0s-5-28.4-7.6-33.7c-1.2-2.4-1.9-3.6-4.9-3v36.9h-21.3v-86c10.6,1.2,24.5-1.7,34.5,0ZM260.5,251.9c7.7-7.6.8-26.6-13.8-20.7v22.8c3.7,0,11,.5,13.8-2.2Z"/>
      <path class="st0" d="M1071.3,217.2c17.8,2.9,21.8,18,18.2,33.9-1.3,5.7-8,8.3-8.5,12.7-.6,5.9,12.2,38.1,10.6,39.5-3.5-.6-20.2.9-21.2,0s-5-28.4-7.6-33.7c-1.2-2.4-1.9-3.6-4.9-3v36.9h-21.3v-86c10.6,1.2,24.5-1.7,34.5,0ZM1070,251.9c7.7-7.6.8-26.6-13.8-20.7v22.8c3.7,0,11,.5,13.8-2.2Z"/>
      <path class="st0" d="M626.7,217.2c17.8,2.9,21.8,18,18.2,33.9-1.3,5.7-8,8.3-8.5,12.7s12.2,38.1,10.6,39.5c-3.5-.6-20.2.9-21.2,0s-5-28.4-7.6-33.7c-1.2-2.4-1.9-3.6-4.9-3v36.9h-21.3v-86c10.6,1.2,24.5-1.7,34.5,0ZM625.4,251.9c7.7-7.6.8-26.6-13.8-20.7v22.8c3.7,0,11,.5,13.8-2.2Z"/>
      <path class="st0" d="M441.6,303.2v-86h32.8c2.2,0,12.9,5.7,14.8,8.1,8.4,10.8,8.5,63.2-2.4,72.7-1.3,1.1-9.7,5.2-10.7,5.2h-34.5ZM461.1,289.2c3.8-.2,10.7,1.5,12.2-2.9,1.3-3.9.9-39.3.3-45.5-.9-9-3.3-10.2-12.5-9.6v57.9Z"/>
      <path class="st0" d="M717.9,303.2v-86h32.8c2.2,0,12.9,5.7,14.8,8.1,8.4,10.8,8.5,63.2-2.4,72.7s-9.7,5.2-10.7,5.2h-34.5ZM737.4,289.2c3.8-.2,10.7,1.5,12.2-2.9s.9-39.3.3-45.5c-.9-9-3.3-10.2-12.5-9.6v57.9Z"/>
      <path class="st0" d="M1346.8,217.2c4.8.5,11.3-1.6,15.1,1.7l16.8,36.9v-38.6h15.9v86l-13.9-.2-16.2-40.1v40.4h-17.7v-86Z"/>
      <path class="st0" d="M799.4,217.2v67.6c0,.8,3.4,5.7,4.7,6,2.2,1.3,7.7-3.2,7.7-4.3v-69.3h19.5v71.1c0,16.1-31,21.4-43.4,11.4-2.6-2.1-7.9-10.6-7.9-13.2v-69.3h19.5Z"/>
      <path class="st0" d="M671.4,217.6c15-3,32.6-.6,35.5,16.7,1.5,9,1.8,45,0,53.6-4.7,22.7-46.1,24.2-50.5-1.8-1.6-9.4-1.7-42.6,0-51.8s7.3-15.1,15.1-16.7ZM675.4,235.6c-2.1,12.8,0,36.7,0,50.9s12.4,5.1,12.4,0v-52.7c0-2.4-11.1-5.9-12.4,1.8Z"/>
      <path class="st0" d="M1300.3,217.6c15-3,32.6-.6,35.5,16.7s1.8,45,0,53.6c-4.7,22.7-46.1,24.2-50.5-1.8-1.6-9.4-1.7-42.6,0-51.8,1.4-7.5,7.3-15.1,15.1-16.7ZM1304.3,235.6c-2.1,12.8,0,36.7,0,50.9s12.4,5.1,12.4,0v-52.7c0-2.4-11.1-5.9-12.4,1.8Z"/>
      <path class="st0" d="M893.3,248.8h-19.5c1.2-6.9.2-23.6-10.4-17.3s-3.3,51.4-1.1,55.9,5.8,4.9,8.9,1.8c4.4-4.6,1.9-16.8,2.6-17.6s16.3.5,19.5,0c.1,15-1.4,30-19,32.9-18.3,3.1-30.8-4.5-32.4-23.2-1-10.7-1.2-35.3.2-45.6s8.1-17.4,18.4-18.6c25.3-3.1,33.4,7.4,32.8,31.6Z"/>
      <path class="st0" d="M1027.9,248.8h-19.5c1.2-6.9.2-23.6-10.4-17.3-2.6,1.6-3.3,51.4-1.1,55.9,1.7,3.5,5.8,4.9,8.9,1.8,4.4-4.6,1.9-16.8,2.6-17.6s16.3.5,19.5,0c.1,15-1.4,30-19,32.9-18.3,3.1-30.8-4.5-32.4-23.2-1-10.7-1.2-35.3.2-45.6,1.4-10.1,8.1-17.4,18.4-18.6,25.3-3.1,33.4,7.4,32.8,31.6Z"/>
      <path class="st0" d="M553.2,268.1v35.1h-21.3v-86h36.3c8.7,0,16.1,14.2,16.8,21.9,2.1,22.4-11,29.8-31.9,29ZM565.4,233.3c-1-1.5-13.1-2.8-13.9-2s-.5,20.5,1.7,22.1c11.3,7.9,16.1-14,12.3-20.1Z"/>
      <path class="st0" d="M370.8,268.1v35.1h-21.3v-86h36.3c8.7,0,16.1,14.2,16.8,21.9,2.1,22.4-11,29.8-31.9,29ZM382.9,233.3c-1-1.5-13.1-2.8-13.9-2s-.5,20.5,1.7,22.1c11.3,7.9,16.1-14,12.3-20.1Z"/>
      <path class="st0" d="M1183.7,217.3l16,85.9c-27.4,6-16.5-13.2-21.4-17.3s-11.7-.5-12.1,0c-1.4,1.4-1.2,16.8-1.9,17.5s-16.3-.5-19.5,0l16-85.9h22.9ZM1176.7,273.4c-.9-7-1.1-14.6-2.2-21.5-.3-1.6-.8-5.3-3.1-4.8l-3.6,26.3h8.9Z"/>
      <path class="st0" d="M326.4,217.3l16,85.9c-27.4,6-16.5-13.2-21.4-17.3s-11.7-.5-12.1,0c-1.4,1.4-1.2,16.8-1.9,17.5s-16.3-.5-19.5,0l16-85.9h22.9ZM319.4,273.4c-.9-7-1.1-14.6-2.2-21.5-.3-1.6-.8-5.3-3.1-4.8l-3.6,26.3h8.9Z"/>
      <path class="st0" d="M1451.3,241.8c-3.1-1.4-15.2,2.5-15.9,1.8s-.8-11.2-2-12.1c-4.6-3.7-9.1,2.3-8.6,7.6.9,10.4,22.6,19.8,26.9,33,13.3,40.2-48.1,46-46.5,4.8,3.4,1,16.3-3.2,17.7-1.8s-2,12.6,6.2,14.1c6.1,1.1,5.4-3.8,4.3-9.6-2.1-11.5-18.9-16.6-24.5-28.4-17.9-37.9,46.7-50.8,42.3-9.5Z"/>
      <path class="st0" d="M1141.3,217.2v14.1s-19.5,0-19.5,0c.5,3.1-.7,18.6,0,19.3,2.3,2.2,14.3-5.7,14.3,7.9,0,13.6-12.1,5.7-14.3,7.9-.8.8.6,18.4,0,21.8,13.6,2.7,22.1-3.9,19.5,15.1h-40.7v-86h40.7Z"/>
      <path class="st0" d="M930.5,233v70.2h-19.5v-70.2c-2.6-.4-13.6.6-14.2,0s.5-13,0-15.8h45.2c3.1,0,3.7,11.5,1.9,14.2-2.1,2.9-9.8,1.3-13.4,1.6Z"/>
      <path class="st0" d="M1233.4,233v70.2h-19.5v-70.2c-2.6-.4-13.6.6-14.2,0s.5-13,0-15.8h45.2c3.1,0,3.7,11.5,1.9,14.2-2.1,2.9-9.8,1.3-13.4,1.6Z"/>
      <path class="st0" d="M431,217.2v86h-21.3v-83.4c0-4.2,17.5-2.3,21.3-2.6Z"/>
      <path class="st0" d="M1274.2,217.2v86h-21.3v-83.4c0-4.2,17.5-2.3,21.3-2.6Z"/>
    </g>
  </g>
</svg>