<?xml version="1.0" encoding="UTF-8"?>
<svg id="Layer_1" xmlns="http://www.w3.org/2000/svg" version="1.1" viewBox="0 0 970.7 500">
  <!-- Generator: Adobe Illustrator 29.0.0, SVG Export Plug-In . SVG Version: 2.1.0 Build 186)  -->
  <defs>
    <style>
      .st0 {
        fill: #f06344;
      }
    </style>
  </defs>
  <g id="gSR1Fw">
    <g>
      <path class="st0" d="M34.2,295.7c6.7-1.1,16.5-9.8,19-16,7.8-19.9-9.3-31.7-15.2-49.7-15.6-47.2,12.8-95.3,60.5-106,257.9-2.1,516.6-2.1,774.4,0,47.6,10.8,76.1,58.9,60.5,106-6,18.2-26.8,34.6-12.8,54.2s12.5,11.5,16.5,11.5h32c.1,0,1.5,1.4,1.5,1.5v53c0,.1-1.4,1.5-1.5,1.5h-35c-1.4,0-13-3.1-15.3-3.7-50.2-15-73.4-73.6-48.1-119.6,2.7-5,6.8-8.8,9-14,6.9-16.9-2.7-33.9-20.9-36.4l-742.8-.3c-21.9.7-33.8,21.5-22.7,40.7,16.7,28.9,24.8,50.5,10.4,84-10.2,23.8-40.9,49.3-67.7,49.3H2.2c-.1,0-1.5-1.4-1.5-1.5v-53c0-.1,1.4-1.5,1.5-1.5,9,0,23.8,1.3,32,0Z"/>
      <path class="st0" d="M678.7,351.7h-55c-.6-20.2-1.2-40.3-1-60.5s3.2-24.8-3.5-36.4c-10.2-17.5-36.5-17.3-46.6.3-.9,1.6-3.8,7.8-3.8,9.2v87.5h-54.5c-.1,0-1.5-1.4-1.5-1.5v-86c0-11.1-15.7-22.5-26.5-22.6s-27.5,10.5-27.5,22.6v86c0,.1-1.4,1.5-1.5,1.5h-53c-.1,0-1.5-1.4-1.5-1.5v-88c0-3.9,2.5-13.1,3.7-17.3,17.2-57.4,88.9-77.8,133.9-38.3,37.5-30.8,91.6-26.6,121.8,12.2,7.3,9.4,16.6,31.6,16.6,43.4v89.5Z"/>
      <path class="st0" d="M294.2,351.7c-1.1-.3-1.7-2.3-1.6-3.4,3.5-40.3-9.6-90.7,14.2-125.9,25.6-37.8,80.3-48.5,116.8-20.2-13.3,13-23.1,29.2-27,47.5-3.9-1.2-6.7-4.2-10.6-5.8-18.6-7.6-38.4,6.4-38.4,26.4v80.5c-1-.3-2.2,1-2.5,1h-51Z"/>
      <path class="st0" d="M851.6,256.3c-12.2-69.9-99.2-95.7-145.9-40.1-42.6,50.7-8.8,129.7,56.5,135.5h89c1.1,0,1.4-2.4,1.6-3.4,3.3-27.8-1.8-63.5-1.2-92ZM792.7,283.2c-9.8,16.6-34.5,17-45.5,1.4-11.1-15.9-2.2-39.4,17.2-42.7,23.3-4,40.4,20.7,28.3,41.3Z"/>
      <path class="st0" d="M197.5,186c-60,3.2-96.7,68-69,121.4,30.2,58.1,113.4,58.9,145.3,2,31.8-56.6-11.6-126.8-76.4-123.4ZM224.5,284.1c-10.1,15.1-34.3,16.3-44.7,1-11.3-16.6-2.8-40.2,17.6-43.1,23.6-3.4,40.2,22.3,27.1,42.1Z"/>
    </g>
  </g>
</svg>